<?xml version="1.0" encoding="utf-8"?>
<!-- Generator: Adobe Illustrator 18.0.0, SVG Export Plug-In . SVG Version: 6.00 Build 0)  -->
<!DOCTYPE svg PUBLIC "-//W3C//DTD SVG 1.1//EN" "http://www.w3.org/Graphics/SVG/1.1/DTD/svg11.dtd">
<svg version="1.1" id="Слой_1" xmlns="http://www.w3.org/2000/svg" xmlns:xlink="http://www.w3.org/1999/xlink" x="0px" y="0px"
	 viewBox="0 0 841.9 327.1" enable-background="new 0 0 841.9 327.1" xml:space="preserve">
<g id="Asgard">
	<path fill="#FFFFFF" d="M100,47.3l2.3,6.9c4.3,21.8,7.3,32.7,9,32.7c2.9-20.3,5.2-30.5,6.8-30.5h0.7V57c0,26.2,6,57.9,18.1,95
		c6.9,18.7,16.3,37.1,28.3,55.3c9.4,13.7,21.4,27.4,36.1,41.2c20.3,17.7,43.3,32.8,69,45.2c1,1,10.8,5.3,29.4,13
		c36.9,12.1,59.9,18.2,69,18.2l0.6,1.1l-3.4,1.1c-14.4,0-46.2-6.8-95.4-20.4c-20.2-6.9-40.6-15.2-61.1-24.8
		c-25.7-12.9-52.9-28.9-81.4-48c-5.6-4.9-8.4-7.5-8.4-8c0.1-0.7,0.5-1.1,1.1-1.1c11.6,6.4,24.8,11.9,39.6,16.4l2.2,0.6
		c-15.1-16.5-27.7-34.2-37.8-53.1c-13-24.1-22.4-45.4-28.3-63.9h-0.6c-3,3.3-11,15.4-23.9,36.1c-0.4,0.6-0.6,1.5-0.6,2.9l25-5.7
		l0.6,1.1c-17.6,11.8-37.9,27.9-61.1,48.5c-8.5,7.4-19.8,18.7-33.9,33.9H0v-1.1C19.6,210,37.9,179.1,54.9,148l4.4-8.6v-1.1
		c-12.3,7.5-18.7,11.3-19.2,11.3l-0.6-1.1v-1.1c12.9-16.6,24.2-33.6,33.9-50.9C86.7,73.4,95.3,57,99.4,47.3H100z"/>
	<path fill="#FFFFFF" d="M213.8,98.5c0.6,0.1,0.8,0.4,0.8,0.8l-8.5,4.8v0.8h0.4c0-0.6,4-1.2,11.9-1.7c15.6,0,29.1,6.7,40.3,20
		c3.3,4,5,6.9,5,8.7c0,0.5-0.3,0.7-0.8,0.7c-6.1-4.4-12.5-7.8-19.2-10.2v0.8c2.8,4.2,4.1,6.9,4.1,7.9c0,0.6-0.3,0.8-0.8,0.8h-1.2
		c-9.2-7.9-19.7-11.9-31.4-11.9h-3.7c-12,1.7-17.9,5.2-17.9,10.6c0,5.1,6.1,9.5,18.3,13.4h0.4c-1.7-2.6-4.2-5.3-7.3-8.1v-0.8
		c0.1-0.6,0.4-0.8,0.8-0.8h0.4c15,5.5,26.2,11.3,33.8,17.2c1.7,0,5.6,3.8,11.4,11.3c2.8,5.7,4.1,9.9,4.1,12.7c0,1.1,0.1,2.6,0.4,4.5
		c0,4.1-1.9,8.9-5.8,14.2c-0.3,0-1.1,1-2.3,2.9h0.4c5.1-2.2,9.2-4.8,12.5-7.7c0.8,0,1.2,0.6,1.2,1.7c-4.1,8.2-13.5,15.1-28.1,20.7
		c-8.2,3-16.2,4.6-24,4.6c-16.1,0-29.1-8.3-38.9-24.8c-3.8-8.7-5.7-16.8-5.7-24.1l0.8-0.4c0.6,0.2,1.7,2.6,3.3,7.3
		c1.7,5.9,6.3,12.7,13.8,20.4l0.8,0.4v-0.4c-3-6.9-4.6-12.2-4.8-15.9V178c0.1-0.6,0.4-0.8,0.8-0.8c3.2,5.6,6.2,10,9,13.1
		c6.9,5.7,14.8,8.6,23.6,8.6c8.1-1.2,13.9-3,17.5-5.4v-0.4h-5.7c-4.5,0-7.1-0.6-7.7-1.9c0-0.8,2.4-1.5,7.3-2.1c6-2.7,9-6.9,9-12.7
		c0-5.8-6.1-10.3-18.3-13.5c-12-2.8-21.6-5.7-28.5-9c-10.1-5.7-15.2-13.6-15.2-23.6c0-10.2,5.2-18.4,15.6-24.5
		c6.3-3.5,14.2-5.9,24-7.3H213.8z"/>
	<path fill="#FFFFFF" d="M329.2,103.3c20.8,0,38.9,8,54.3,23.9l1.4,2.8h1.4c2.1-5,7.6-12.1,16.4-21.5h0.4c0.6,0.1,1,0.4,1,1
		c-5.3,29.3-8,54.1-8,74.3c-0.3,0.1-0.9,14.4-1.8,43c0,0.3,0.1,0.4,0.4,0.4l-0.4,2.9c0,41.3-4.6,64.6-13.7,70.1
		c-10.8,10.3-19.6,15.4-26.6,15.4l-1-1.4c6.3-5.1,9.7-8.3,10.3-9.4v-0.4l-2.3,0.4h-5.7c-8.6,0-16.5-5.6-23.9-16.8
		c-2.5-5.2-3.7-9.6-3.7-13.1v-3.7c0-10.6,4.7-20.7,14.1-30.3l1.8-1.4c0.6,0.1,1,0.4,1,0.8c-4.3,7.5-6.5,15.4-6.5,23.4v4.7h0.4
		c1.1-3.7,3.9-7.6,8.4-11.7l0.6,1v1c-1.6,5.1-2.5,8.9-2.9,11.6c1.7,9.4,6.1,14.1,13.1,14.1c9.7,0,16.8-9.1,21.5-27.2h-0.4
		c-5.8,6.9-9.6,10.3-11.3,10.3l-0.4-1c5.3-15.8,8-32.2,8-49.1c0.6,0,1-5,1-14.9v-2.9l-0.6-5.5h-0.4c-8.9,9.9-18.8,16.5-29.5,19.6
		c-6.3,1.8-10.9,2.8-14.1,2.8c-19.4,0-33.4-5.7-42.1-17.2c0,3.3,0.9,7.2,2.8,11.7c-0.5,1.2-0.9,1.8-1.4,1.8h-0.4
		c-13.4-12.6-20.1-27.3-20.1-44c0-13.8,6.8-26.4,20.5-37.8c1.2-0.9,2.2-1.4,2.9-1.4v-1h-1c-3.5,0-8.2,0.8-14.1,2.3l-1-1.4
		c9.7-12.1,22.6-20.4,38.9-24.8L329.2,103.3z M299.8,163.1v3.2c0,0.6-0.3,1-1,1h-0.6c-3-3.3-4.6-5.3-4.6-6.1h-1v0.6
		c0,9.3,5.3,18.6,15.9,28c7.3,4.4,14.4,6.6,21.5,6.6c14,0,25.1-6.6,33.2-19.7c1.8-3.9,2.8-7.8,2.8-11.7c0-5.1-1.1-8.9-3.2-11.6v-1
		c0.1-0.6,0.4-1,0.8-1c7.7,6.3,11.6,10.2,11.7,11.7c0.6,0,1-0.3,1-1c0-14.1-8-24.8-23.9-32.3c-6.1-2.2-11.1-3.3-15-3.3
		c-17.1,0-28.9,8.1-35.4,24.4C300.6,154,299.8,158.1,299.8,163.1z"/>
	<path fill="#FFFFFF" d="M474.1,103.7h4.3c16.5,0,30.4,7,41.5,21c0,1,0.5,1.5,1.4,1.5c6.9-6.3,10.9-9.5,12-9.5h0.4l1,0.4
		c-1.7,7.1-2.8,11.2-3.3,12.4l0.6,1c-1.3,8.6-1.9,16.7-1.9,24.3c0,22,2.5,43.6,7.6,65l-1,0.4c-8.5-2.9-15.8-5.1-21.9-6.6
		c-0.3,0-0.4,0.1-0.4,0.4c-5.8-0.6-8.7-1.4-8.7-2.3c1.7-5.8,2.5-10.4,2.5-13.9c-0.6,0-3.2,1.9-7.7,5.8c-6.3,4.1-14.2,7.6-23.9,10.5
		c-8.5,1.9-14.7,2.9-18.5,2.9h-3.4c-11.1-1.2-18.3-2.9-21.4-5.2c-3.5-2.3-5.9-4-7.2-5.2l-0.6,1v0.4c0,2.3,1.1,5.7,3.4,10.1
		c0,0.6-0.3,1-1,1h-1c-5.6,0-11.4-9.2-17.2-27.7c-0.9-4.1-1.4-8.9-1.4-14.3v-2.3c0-16.8,9.1-34.5,27.2-53v-0.4
		c-2.6,0.3-6.5,1.4-11.9,3.3H423v-1c5.1-6.8,16.1-12.7,33-17.7C464.3,104.4,470.3,103.7,474.1,103.7z M438.8,165.8
		c-1.8-1.2-2.8-3.1-2.8-5.8v-7.6c0-3.7,0.3-6.2,0.8-7.6H436c-4.1,4-6.2,9.6-6.2,16.7c0,16.5,7.1,27.3,21.4,32.4
		c2.6,0.6,5.9,1.1,10.1,1.4c9.9,0,19.9-4.8,30.1-14.3c5.3-6.8,8-13.6,8-20.4c0-0.6-0.6-4.4-1.8-11.4l0.8-0.6
		c2.3,0.5,6.1,2.5,11.4,6.2h1v-0.4c0-5.6-2.8-11.4-8.5-17.2c-4.5-4.4-11.4-6.6-20.5-6.6c-13,0-24.7,7.2-35.2,21.5
		c-3.3,5.1-5.6,9.6-6.8,13.2L438.8,165.8z"/>
	<path fill="#FFFFFF" d="M554.5,92.1c3.5,0.5,12.2,7.1,26.2,20l-4.1,14.6c9.6-8.8,17.4-14.6,23.6-17.2c11.3-4.2,21.1-6.3,29.5-6.3
		c0.4,0,0.6,0.2,0.6,0.6l2.6-0.6c2.8,0.2,4.1,0.7,4.1,1.5c-1.1,1.1-4.8,2.8-11,5.2c-1.7,1.1-2.6,1.8-2.6,2.2
		c10.1,0,20.6,5.1,31.6,15.2c1.7,2.4,2.6,4.1,2.6,5.2c-0.6,0.4-1.2,0.6-1.5,0.6c-7.6-5.6-16-8.4-25.2-8.4h-2.8
		c-13.5,0-26.5,7.2-38.9,21.5c-8.2,11.4-14.3,23.2-18.3,35.3c-4.9,11.8-8.4,23.7-10.5,35.7l-1.1,0.6c-0.9,0-1.4-0.7-1.5-2.1
		c0-13.2-3-33.2-9-60l-6.3-15.2l1.1-0.6h0.4c1.9,0,5.8,3,11.6,9v-1.1c0-10-3.5-27.9-10.5-53.6l1.1-0.6c1.2,0.1,4.9,2.7,11,7.9v-1
		c-1.7-2-3.2-4.6-4.3-7.9C553.6,92.3,554.2,92.1,554.5,92.1z"/>
	<path fill="#FFFFFF" d="M752.3,0c3.4,0.4,12.7,7.3,27.9,20.7v2.8c-1.2,16.9-1.8,27.5-1.8,31.9c4.7-5.7,7.2-8.6,7.6-8.6
		c0.6,0.1,1,0.4,1,1v0.4c-5.4,36.6-8.1,66.7-8.1,90.5c0,28.5,2,54.9,5.9,79.2l-1.4,1c-6.3-6.4-12.4-14.4-18.1-23.9
		c-10.6,13.1-18.5,20.5-23.9,22.5l-0.8-1.4c2.3-3.1,4.7-7.3,7.2-12.5v-0.8h-0.4c-13.5,9.6-26.6,14.3-39.2,14.3
		c-17.5,0-33.7-4-48.7-12.1c-3.8-2.4-5.7-3.9-5.8-4.6l0.4-0.8c8.5,1.5,13.9,2.2,16.3,2.2h0.8c0.4,0,0.6,0.1,0.6,0.4l0.8-0.4l1,0.4
		v-0.8c-1.7,0-5.5-3.9-11.3-11.7c-4.9-8.3-7.6-15.8-8.1-22.5v-7.7c0.5-5.6,3-12.5,7.7-20.7c1.5-3.1,6-8.4,13.5-15.7l-3.2-0.4H669
		c-3,0-6.2,0.4-9.5,1.2l-0.4-0.8c1-2.9,7.4-7,19.3-12.1c13.1-4.8,24.8-7.2,35.2-7.2c19.3,0,34.8,5.2,46.3,15.7
		c-2.3-18.3-5-32.1-8.1-41.4c-0.9-1.4-1.9-4.5-3-9.5V68c0.1-0.6,0.4-1,0.8-1h0.4c3.4,2.9,6.8,7.4,10.3,13.5v-0.8
		c0-26-3.7-49.9-11.2-71.6V7.6c0.1-0.6,0.4-0.8,0.8-0.8h0.6c4.2,3.6,6.6,5.4,7.2,5.4c-2.7-4.8-4.8-8.1-6.3-9.9V0.8
		C751.4,0.3,751.7,0,752.3,0z M681.1,158.5v2.6c0,7.5,3.4,14.8,10.3,21.7c0,0.6-0.5,0.8-1.4,0.8c-3.4-0.2-7.4-1.5-12.1-4h-0.8v0.4
		c7.4,9.7,17.7,14.5,30.6,14.5h2.6c8.7,0,17.6-2.7,26.6-8.1c7.8-5.1,13.7-10.8,17.5-17.1c2.7-3.9,4-6.6,4-8.1
		c-6.3,4.8-10.5,7.2-12.5,7.2l-0.4-0.8v-1c4.1-5.8,6.2-10.7,6.2-14.8v-3.2c0-10.1-8.2-16.9-24.7-20.3h-7.2c-18.5,0-31.1,8-37.8,23.9
		C681.4,155.3,681.1,157.4,681.1,158.5z"/>
</g>
<g id="concerts">
	<path fill="#FFFFFF" d="M431.1,241.7l0.2,0.4c-2.4,2.4-3.6,3.8-3.6,4.2h0.2c4.8-2.3,10.2-3.4,16.2-3.4h0.8c4.8,0,9.2,1.4,13.2,4.2
		l0.2,0.5v0.4c-2.7,8.5-4.2,12.9-4.6,13.1h-0.5c-3-3.6-6.8-6-11.6-7.2v0.2c1.5,1.5,2.3,2.4,2.3,2.6v0.4c0,0.3-0.2,0.5-0.6,0.5
		c-1.9-0.6-3.5-0.8-4.7-0.8h-1.7c-0.1,0-0.2-0.1-0.2-0.2c-4.6,0.3-9.2,2.2-13.8,5.7c-2.8,3.1-4.2,6.4-4.2,9.8c0,3.7,2.1,7,6.2,9.7
		c2.3,0.7,3.7,1.1,4.2,1.1h0.6c2.9,0,5.8-0.9,8.9-2.8h0.3l0.4,0.6v0.2c-1.7,2.7-3.2,4.4-4.4,5.1v0.4h0.2c5.8,0,12.1-2.7,18.7-8
		c2.4-2.4,3.8-4.2,4.2-5.3h0.4c0.3,0,0.5,0.2,0.5,0.4v1.9c-1.3,5.7-3.6,10-6.8,13c-5.3,4.8-11.6,7.2-18.9,7.2h-2.4
		c-6.2,0-12.5-3-18.9-9.1c-5.9-6.5-9.3-12.6-10.2-18.3v-1.9c0-0.3,0.2-0.4,0.5-0.4h0.2c1.7,2.7,3.1,4.7,4.1,5.9h0.2v-0.4
		c0-8.6,3.5-15.9,10.4-21.9C422,245,426.8,242.4,431.1,241.7z"/>
	<path fill="#FFFFFF" d="M497,243.1h2.4c0.1,0,0.2,0.1,0.2,0.2c0.2,0,0.3-0.1,0.3-0.2c7.5,1.2,12.2,3,14.4,5.3v0.2
		c0,0.3-0.1,0.4-0.4,0.4c-1.3-0.4-2.6-0.6-3.7-0.6h-1.7c-0.7,0-1.8,0.1-3.2,0.2v0.4c4.2,1.1,8.4,4,12.7,8.8
		c2.9,3.9,4.3,7.8,4.3,11.6c0,9.7-5.3,19-15.9,27.7h-0.2c-0.3,0-0.5-0.2-0.5-0.6c2-4,3-6.3,3-6.9h-0.3c-5.3,4.2-11.4,6.2-18.3,6.2
		h-1.3c-10.1,0-19.8-5.4-29-16.3c0-0.2-0.2-0.5-0.5-0.8c0-0.3,0.2-0.4,0.5-0.4c2.1,1.3,5,2.6,8.6,3.9v-0.4c-2-3.8-3-7.9-3-12.3
		c0-3.6,1.3-7.7,3.9-12.4C475.8,247.7,485,243.1,497,243.1z M474.2,270.8c0,4.9,2.6,8.7,7.8,11.4c0.4,0.3,2.1,0.7,5.1,1.1
		c4.2,0,8.5-2.7,12.9-8h0.2c0.3,0,0.5,0.2,0.5,0.5v1.5c0,1.5-0.6,3.9-1.7,7.3c4.7-2,7.9-4.9,9.7-8.8c0.6-1.3,1.1-3.2,1.5-5.8
		c0-3.1-1.2-6.3-3.7-9.5c-3-2.7-6.2-4.1-9.7-4.1c-4.5,0-9,2.6-13.5,7.9h-0.3c-0.3,0-0.4-0.2-0.4-0.6c0-1.1,1-3.7,3-7.9h-0.2
		c-2.7,1-5,2.5-6.9,4.5c-1.9,1.5-3.4,4.2-4.3,8.4V270.8z"/>
	<path fill="#FFFFFF" d="M529,240.2h0.6c2.3,1.6,4.8,4.1,7.6,7.6h0.5c4.5-2.2,9-3.7,13.6-4.5h0.4v0.3c0.5-0.3,2.3-0.5,5.5-0.7
		c7,0,12,1.6,15,4.7c0,0.3-0.2,0.5-0.7,0.5c-1.3-0.3-2.3-0.5-2.9-0.5h-3.8v0.5c4.7,2.3,8.6,7.3,11.6,15c1.6,4.5,2.4,7.9,2.4,10
		c0,10.7-2.5,18.7-7.4,23.9h-0.2c-0.3,0-0.5-0.2-0.5-0.5v-0.2c1.3-3.9,2-8.2,2-12.7c-0.6-6-1.2-9-1.7-9H571c0,0.9-1.1,2.4-3.2,4.7
		c-0.2,0-0.4-0.2-0.6-0.7c0.4-0.7,0.6-2.9,0.6-6.4v-0.5c0-6.6-2.4-11.6-7.3-15.2c-1.5-1.2-4-1.8-7.4-1.8c-4.9,0-8.9,2.6-12,7.9
		c-0.7,1.7-1.1,2.6-1.1,2.9h0.2c2.4-1.4,4.4-2.1,6.1-2.1l0.2,0.5v0.3c-2.9,3.7-5.3,7.8-7.1,12.3c-1.8,3.9-3.4,10.3-4.9,19
		c0,0.3-0.2,0.4-0.4,0.4h-0.2c-0.3,0-0.5-0.1-0.5-0.4c0-0.2,0.1-0.3,0.2-0.3c-2.5-17.5-4.7-28.3-6.7-32.1h0.9
		c0.7,0.3,2.3,1.7,4.9,4.4h0.3v-1.1c0-3.4-1.4-12.1-4.2-25.9L529,240.2z"/>
	<path fill="#FFFFFF" d="M611.9,241.7l0.2,0.4c-2.4,2.4-3.6,3.8-3.6,4.2h0.2c4.8-2.3,10.2-3.4,16.2-3.4h0.8c4.8,0,9.2,1.4,13.2,4.2
		l0.2,0.5v0.4c-2.7,8.5-4.2,12.9-4.6,13.1H634c-3-3.6-6.8-6-11.6-7.2v0.2c1.5,1.5,2.3,2.4,2.3,2.6v0.4c0,0.3-0.2,0.5-0.6,0.5
		c-1.9-0.6-3.5-0.8-4.7-0.8h-1.7c-0.1,0-0.2-0.1-0.2-0.2c-4.6,0.3-9.2,2.2-13.8,5.7c-2.8,3.1-4.2,6.4-4.2,9.8c0,3.7,2.1,7,6.2,9.7
		c2.3,0.7,3.7,1.1,4.2,1.1h0.6c2.9,0,5.8-0.9,8.9-2.8h0.3l0.4,0.6v0.2c-1.7,2.7-3.2,4.4-4.4,5.1v0.4h0.2c5.8,0,12.1-2.7,18.7-8
		c2.4-2.4,3.8-4.2,4.2-5.3h0.4c0.3,0,0.4,0.2,0.4,0.4v1.9c-1.3,5.7-3.6,10-6.8,13c-5.3,4.8-11.6,7.2-18.9,7.2h-2.4
		c-6.2,0-12.5-3-18.9-9.1c-5.9-6.5-9.3-12.6-10.2-18.3v-1.9c0-0.3,0.2-0.4,0.5-0.4h0.2c1.7,2.7,3.1,4.7,4.1,5.9h0.2v-0.4
		c0-8.6,3.5-15.9,10.4-21.9C602.9,245,607.6,242.4,611.9,241.7z"/>
	<path fill="#FFFFFF" d="M674.9,242.7c9.1,0,15.6,3.1,19.5,9.2c0.9,1.3,1.4,2.3,1.4,3h0.2c0.2-2.4,0.3-3.6,0.4-3.7
		c-0.2-0.8-0.3-1.5-0.3-2v-1.7c0-0.3,0.2-0.5,0.5-0.5h0.2c2.2,2.7,3.3,5.8,3.3,9.2v1.7c0,3.4-1.5,7.3-4.4,11.6
		c-4.4,4.8-9.7,7.2-16.1,7.2c-0.2-0.2-0.5-0.3-1-0.3c-0.4,0-0.8,0.1-1,0.3c-3.5,0-7.4-1.5-11.7-4.4c-0.8-0.9-1.2-1.4-1.2-1.5v-0.2
		c0-0.3,0.2-0.4,0.4-0.4h0.6c2.1,1.3,4.3,1.9,6.6,1.9c8.1,0,13.1-2.1,15.1-6.3l0.6-3.1c0-3.3-2.1-6-6.4-8l-0.4,0.2
		c0.3,0.8,0.9,1.8,1.8,3.1v0.8h-1c-2.3-1.6-5.2-2.4-8.9-2.4l-0.5,0.2l-0.4-0.2c-0.3,0.1-0.5,0.2-0.6,0.2v-0.2
		c-3.5,0.6-6.2,1.5-8.2,2.8c-3.3,3.3-5,6.4-5,9.2c-0.1,0-0.2,0.3-0.2,0.8v1.1c0,5.7,2.9,10,8.8,13.1c2.7,1,4.9,1.5,6.8,1.5
		c3.8-0.3,5.7-0.7,5.7-1.1l0.5,0.3c2.8-1,5.2-2.2,7.1-3.7h0.2c0.3,0,0.4,0.2,0.4,0.5v0.2c-1,1.7-2.2,3.4-3.6,5
		c4.6-0.9,8.5-2.4,11.7-4.6c2.3-1.5,4.9-3.6,7.8-6.6h0.6c0.3,0,0.4,0.2,0.4,0.4c-2,4.9-6,9.9-12.1,14.9c-7.3,5.2-14.7,7.9-22.1,7.9
		h-0.8c-0.2,0-0.4-0.2-0.6-0.6v-0.3c0-0.3,1.4-1,4-2.1v-0.3h-2.8c-8,0-14.5-3.6-19.4-10.9c-2.9-5.2-4.4-10.1-4.4-14.8v-2.6
		c0-7.2,1.7-13.5,5.1-19l0.6-0.5h0.3c0.3,0,0.4,0.2,0.4,0.6c-0.1,2.1-0.2,3.3-0.2,3.5c0.1,0.3,0.2,0.5,0.2,0.6h-0.2
		c0.1,0.3,0.2,0.5,0.2,0.8C659.6,246.1,666.9,242.7,674.9,242.7z"/>
	<path fill="#FFFFFF" d="M712.6,237.7c1.6,0.2,5.7,3.3,12.2,9.3l-1.9,6.8c4.5-4.1,8.1-6.8,11-8c5.3-2,9.9-3,13.8-3
		c0.2,0,0.3,0.1,0.3,0.3l1.2-0.3c1.3,0.1,1.9,0.3,1.9,0.7c-0.5,0.5-2.2,1.3-5.1,2.4c-0.8,0.5-1.2,0.9-1.2,1c4.7,0,9.6,2.4,14.7,7.1
		c0.8,1.1,1.2,1.9,1.2,2.4c-0.3,0.2-0.5,0.3-0.7,0.3c-3.6-2.6-7.5-3.9-11.8-3.9h-1.3c-6.3,0-12.4,3.3-18.1,10
		c-3.8,5.3-6.7,10.8-8.6,16.5c-2.3,5.5-3.9,11-4.9,16.7l-0.5,0.3c-0.4,0-0.7-0.3-0.7-1c0-6.2-1.4-15.5-4.2-28l-3-7.1l0.5-0.3h0.2
		c0.9,0,2.7,1.4,5.4,4.2v-0.5c0-4.7-1.6-13-4.9-25l0.5-0.3c0.6,0,2.3,1.3,5.1,3.7v-0.5c-0.8-0.9-1.5-2.2-2-3.7
		C712.2,237.8,712.4,237.7,712.6,237.7z"/>
	<path fill="#FFFFFF" d="M765.7,211.9h0.7c9.7,8,14.8,14.6,14.8,15.2c-1.2,9-1.7,8.9-1.7,10.7c1.8-1.8,3-2.6,3.4-2.6
		c0,0.2,0.1,0.3,0.3,0.3c-1.3,4.8-2.4,3.5-3.4,11.8l0.5,0.3h0.2c6.1,0,10.6-10.5,21.2-14.6c0.3-0.1,0.5,0.2,0.5,0.5v0.5
		c0,0.2-1.4,1.5-4.1,4.1v0.3c6.6-2.4,10.7-2.8,15.9-1.4l0.3,0.4c-4.4,2.2-8.1,2.2-13.5,6.5c-2.7,2.2-10.1,12.1-20.5,13.9l-0.8,4.1
		c0,0.2,0.1,0.3,0.3,0.3l-1.9,37.8l0.3,0.5c-1,8.8-1.6,16.6-1.9,23.4l-0.5,0.3h-0.5c-0.7-0.5-1.5-2.6-2.2-6.2h0.3
		c-0.5-0.9-1.1-3.2-1.9-7c-0.3,0-0.5-0.3-0.5-1h0.3c0-0.3-1.4-5.2-4.3-14.5l0.5-0.3h0.5l3.1,3.4l0.3-0.5v-0.7c0-0.6-0.1-1.3-0.3-2.2
		c0-0.2,0.1-0.3,0.3-0.3l-0.3-1c0-3.3-0.3-24.4-1-34.9l-0.5-0.3c-2.2,0.2-3.7,0.3-4.4,0.3c-4.1-7.3-7.8-13.6-11.1-18.8v-0.5
		c0-0.2,0.2-0.4,0.7-0.7c5.6,3.9,10.6,6.2,15,7l0.5-0.3c-2.8-25.1-3.5-31.9-4.9-32.9v-0.3C765.3,212,765.4,211.9,765.7,211.9z"/>
	<path fill="#FFFFFF" d="M818.7,240.7c0.3,0,0.4,0.2,0.4,0.4l-4,2.3v0.4h0.2c0-0.3,1.8-0.6,5.5-0.8c7.3,0,13.6,3.1,18.8,9.3
		c1.5,1.8,2.3,3.2,2.3,4.1c0,0.2-0.1,0.3-0.4,0.3c-2.8-2.1-5.8-3.6-8.9-4.8v0.4c1.3,2,1.9,3.2,1.9,3.7c0,0.3-0.1,0.4-0.4,0.4h-0.6
		c-4.3-3.7-9.2-5.5-14.7-5.5h-1.7c-5.6,0.8-8.4,2.4-8.4,5c0,2.4,2.9,4.4,8.6,6.2h0.2c-0.8-1.2-2-2.5-3.4-3.8v-0.4
		c0-0.3,0.2-0.4,0.4-0.4h0.2c7,2.6,12.2,5.3,15.8,8c0.8,0,2.6,1.8,5.3,5.3c1.3,2.7,1.9,4.6,1.9,5.9c0,0.5,0.1,1.2,0.2,2.1
		c0,1.9-0.9,4.1-2.7,6.6c-0.1,0-0.5,0.4-1.1,1.3h0.2c2.4-1,4.3-2.2,5.9-3.6c0.4,0,0.6,0.3,0.6,0.8c-1.9,3.8-6.3,7-13.1,9.7
		c-3.8,1.4-7.6,2.1-11.2,2.1c-7.5,0-13.6-3.9-18.1-11.6c-1.8-4.1-2.6-7.8-2.6-11.3l0.4-0.2c0.3,0.1,0.8,1.2,1.5,3.4
		c0.8,2.7,3,5.9,6.4,9.5l0.4,0.2v-0.2c-1.4-3.2-2.2-5.7-2.3-7.4v-0.4c0-0.3,0.2-0.4,0.4-0.4c1.5,2.6,2.9,4.7,4.2,6.1
		c3.2,2.7,6.9,4,11,4c3.8-0.6,6.5-1.4,8.2-2.5v-0.2h-2.6c-2.1,0-3.3-0.3-3.6-0.9c0-0.4,1.1-0.7,3.4-1c2.8-1.2,4.2-3.2,4.2-5.9
		c0-2.7-2.9-4.8-8.6-6.3c-5.6-1.3-10.1-2.7-13.3-4.2c-4.7-2.7-7.1-6.3-7.1-11c0-4.8,2.4-8.6,7.3-11.5c2.9-1.6,6.6-2.8,11.2-3.4
		H818.7z"/>
</g>
</svg>
