<?xml version="1.0" encoding="utf-8"?>
<!-- Generator: Adobe Illustrator 18.0.0, SVG Export Plug-In . SVG Version: 6.00 Build 0)  -->
<!DOCTYPE svg PUBLIC "-//W3C//DTD SVG 1.1//EN" "http://www.w3.org/Graphics/SVG/1.1/DTD/svg11.dtd">
<svg version="1.1" id="Слой_1" xmlns="http://www.w3.org/2000/svg" xmlns:xlink="http://www.w3.org/1999/xlink" x="0px" y="0px"
	 viewBox="2285.2 24.8 543.6 131.7" enable-background="new 2285.2 24.8 543.6 131.7" xml:space="preserve">
<g id="Слой_1_1_">
	<g>
		<path fill="#FFFFFF" d="M2328.8,68.8h-32.6v21.9h-11V35.8h43.9v11h-32.9v11h32.7v11H2328.8z"/>
		<path fill="#FFFFFF" d="M2379.1,90.7h-43.8V35.8h43.8v11h-32.9v11h32.7v10.9h-32.7v11.1h32.9C2379.1,79.8,2379.1,90.7,2379.1,90.7
			z"/>
		<polygon fill="#FFFFFF" points="2387,24.8 2387,35.9 2419.9,35.9 2419.9,46.7 2387,46.7 2387,57.8 2387.2,57.8 2387.2,57.8 
			2419.9,57.8 2419.9,68.8 2387.2,68.8 2387.2,68.9 2386.9,68.9 2386.9,79.8 2419.9,79.8 2419.9,90.7 2386.9,90.7 2386.9,101.6 
			2430.8,101.6 2430.8,79.8 2430.8,46.7 2430.8,24.8 		"/>
		<path fill="#FFFFFF" d="M2493.6,79.8c0,7.3-3.6,10.9-10.9,10.9h-44V35.8h44c1.5,0,2.9,0.3,4.2,0.9c1.3,0.6,2.4,1.4,3.4,2.3
			c1,1,1.8,2.1,2.3,3.5c0.6,1.3,0.9,2.7,0.9,4.2V79.8z M2482.6,79.8v-33h-32.9v33H2482.6z"/>
		<path fill="#FFFFFF" d="M2557.1,79.2c-0.1,3.8-0.9,6.8-2.4,8.7c-1.6,1.9-4.3,2.9-8.4,2.9h-43.8v-55h43.8c3.8,0,6.6,0.9,8.2,2.7
			c1.7,1.8,2.5,4.5,2.5,8.3v9.3c0,2.3-0.4,3.9-1.1,5.1s-2,1.9-3.9,2.4c1.8,0.4,3.2,1.2,4,2.3c0.8,1.2,1.2,2.9,1.2,5.3L2557.1,79.2z
			 M2546.2,57.9V46.8h-32.9v11.1H2546.2z M2546.2,79.8V68.1h-32.9v11.7H2546.2z"/>
		<path fill="#FFFFFF" d="M2620.4,90.7h-11V68.8h-32.9v21.9h-10.9V46.8c0-3.4,1-6.2,3-8.1c2-1.9,4.6-2.9,7.9-2.9h32.9
			c1.6,0,3,0.3,4.4,0.8s2.5,1.3,3.5,2.3c1,1,1.7,2.1,2.3,3.5c0.5,1.3,0.8,2.8,0.8,4.3v43.9H2620.4z M2609.4,57.8v-11h-32.9v11
			C2576.5,57.8,2609.4,57.8,2609.4,57.8z"/>
		<path fill="#FFFFFF" d="M2681.9,90.7h-42c-7.3,0-10.9-3.6-10.9-10.9v-33c0-3.1,0.9-5.7,2.7-7.8c1.8-2.1,4.5-3.2,8.2-3.2h42v11h-42
			v33h42V90.7L2681.9,90.7z"/>
		<path fill="#FFFFFF" d="M2744,90.7h-16.8l-27.3-23.9v23.9h-11V35.8h10.9v22.6l26.6-22.6h16.7l-31.7,26.7L2744,90.7z"/>
	</g>
	<g>
		<path fill="#FFFFFF" d="M2504.5,156.6h-11v-31.2l-14.9,31.2h-13.8l-14.9-31.2v31.2h-11.1v-54.9h11.6l21.5,44l21.6-44h11.1V156.6z"
			/>
		<path fill="#FFFFFF" d="M2568.7,156.6h-11v-21.9h-32.9v21.9h-10.9v-43.9c0-3.4,1-6.2,3-8.1c2-1.9,4.6-2.9,7.9-2.9h32.9
			c1.6,0,3,0.3,4.4,0.8s2.5,1.3,3.5,2.3c1,1,1.7,2.1,2.3,3.5c0.5,1.3,0.8,2.8,0.8,4.3v43.9H2568.7z M2557.7,123.6v-11h-32.9v11
			H2557.7z"/>
		<path fill="#FFFFFF" d="M2630.1,156.6h-42c-7.3,0-10.9-3.6-10.9-10.9v-32.9c0-3.1,0.9-5.7,2.7-7.8c1.8-2.1,4.5-3.2,8.2-3.2h42v11
			h-42v32.9h42V156.6L2630.1,156.6z"/>
		<path fill="#FFFFFF" d="M2690.2,156.6h-11v-21.9h-31v21.9h-11.1v-54.9h11.1v22h31v-22h11V156.6z"/>
		<path fill="#FFFFFF" d="M2710.8,156.6h-10.9v-54.9h10.9V156.6z"/>
		<path fill="#FFFFFF" d="M2775.3,156.6h-6.8l-37-37.3v37.3h-11.1v-54.9h9.3l34.7,35.8v-35.8h10.8V156.6z"/>
		<path fill="#FFFFFF" d="M2828.8,156.6h-43.9v-54.9h43.8v11h-32.9v11h32.7v10.9h-32.7v11h32.9v11H2828.8z"/>
	</g>
</g>
<g id="Слой_1__x28_копия_x29_" display="none">
	<g display="inline">
		<g>
			<rect id="p" x="3025.5" y="409.8" fill="#0D0F0F" width="0.5" height="0.5"/>
		</g>
		<g>
			<rect id="p_1_" x="3025.5" y="410.4" fill="#0D0F0F" width="0.5" height="0.5"/>
		</g>
		<g>
			<rect id="p_2_" x="3025.5" y="410.9" fill="#0D0F0F" width="0.5" height="0.5"/>
		</g>
		<g>
			<rect id="p_3_" x="3025.5" y="411.5" fill="#0D0F0F" width="0.5" height="0.5"/>
		</g>
		<g>
			<rect id="p_4_" x="3025.5" y="412" fill="#0D0F0F" width="0.5" height="0.5"/>
		</g>
		<g>
			<rect id="p_5_" x="3025.5" y="412.6" fill="#0D0F0F" width="0.5" height="0.5"/>
		</g>
		<g>
			<rect id="p_6_" x="3025.5" y="413.1" fill="#0D0F0F" width="0.5" height="0.5"/>
		</g>
		<g>
			<rect id="p_7_" x="3025.5" y="414.2" fill="#0D0F0F" width="0.5" height="0.5"/>
		</g>
		<g>
			<rect id="p_8_" x="3025.5" y="417.1" fill="#0D0F0F" width="0.5" height="0.5"/>
		</g>
		<g>
			<rect id="p_9_" x="3025.5" y="417.6" fill="#0D0F0F" width="0.5" height="0.5"/>
		</g>
		<g>
			<rect id="p_10_" x="3025.5" y="418.7" fill="#0D0F0F" width="0.5" height="0.5"/>
		</g>
		<g>
			<rect id="p_11_" x="3025.5" y="419.8" fill="#0D0F0F" width="0.5" height="0.5"/>
		</g>
		<g>
			<rect id="p_12_" x="3025.5" y="420.3" fill="#0D0F0F" width="0.5" height="0.5"/>
		</g>
		<g>
			<rect id="p_13_" x="3025.5" y="420.9" fill="#0D0F0F" width="0.5" height="0.5"/>
		</g>
		<g>
			<rect id="p_14_" x="3025.5" y="421.4" fill="#0D0F0F" width="0.5" height="0.5"/>
		</g>
		<g>
			<rect id="p_15_" x="3025.5" y="422" fill="#0D0F0F" width="0.5" height="0.5"/>
		</g>
		<g>
			<rect id="p_16_" x="3025.5" y="422.5" fill="#0D0F0F" width="0.5" height="0.5"/>
		</g>
		<g>
			<rect id="p_17_" x="3025.5" y="423.1" fill="#0D0F0F" width="0.5" height="0.5"/>
		</g>
		<g>
			<rect id="p_18_" x="3026" y="409.8" fill="#0D0F0F" width="0.5" height="0.5"/>
		</g>
		<g>
			<rect id="p_19_" x="3026" y="413.1" fill="#0D0F0F" width="0.5" height="0.5"/>
		</g>
		<g>
			<rect id="p_20_" x="3026" y="414.2" fill="#0D0F0F" width="0.5" height="0.5"/>
		</g>
		<g>
			<rect id="p_21_" x="3026" y="414.8" fill="#0D0F0F" width="0.5" height="0.5"/>
		</g>
		<g>
			<rect id="p_22_" x="3026" y="415.3" fill="#0D0F0F" width="0.5" height="0.5"/>
		</g>
		<g>
			<rect id="p_23_" x="3026" y="416" fill="#0D0F0F" width="0.5" height="0.5"/>
		</g>
		<g>
			<rect id="p_24_" x="3026" y="416.5" fill="#0D0F0F" width="0.5" height="0.5"/>
		</g>
		<g>
			<rect id="p_25_" x="3026" y="418.1" fill="#0D0F0F" width="0.5" height="0.5"/>
		</g>
		<g>
			<rect id="p_26_" x="3026" y="418.7" fill="#0D0F0F" width="0.5" height="0.5"/>
		</g>
		<g>
			<rect id="p_27_" x="3026" y="419.8" fill="#0D0F0F" width="0.5" height="0.5"/>
		</g>
		<g>
			<rect id="p_28_" x="3026" y="423.1" fill="#0D0F0F" width="0.5" height="0.5"/>
		</g>
		<g>
			<rect id="p_29_" x="3026.6" y="409.8" fill="#0D0F0F" width="0.5" height="0.5"/>
		</g>
		<g>
			<rect id="p_30_" x="3026.6" y="410.9" fill="#0D0F0F" width="0.5" height="0.5"/>
		</g>
		<g>
			<rect id="p_31_" x="3026.6" y="411.5" fill="#0D0F0F" width="0.5" height="0.5"/>
		</g>
		<g>
			<rect id="p_32_" x="3026.6" y="412" fill="#0D0F0F" width="0.5" height="0.5"/>
		</g>
		<g>
			<rect id="p_33_" x="3026.6" y="413.1" fill="#0D0F0F" width="0.5" height="0.5"/>
		</g>
		<g>
			<rect id="p_34_" x="3026.6" y="414.2" fill="#0D0F0F" width="0.5" height="0.5"/>
		</g>
		<g>
			<rect id="p_35_" x="3026.6" y="415.3" fill="#0D0F0F" width="0.5" height="0.5"/>
		</g>
		<g>
			<rect id="p_36_" x="3026.6" y="417.6" fill="#0D0F0F" width="0.5" height="0.5"/>
		</g>
		<g>
			<rect id="p_37_" x="3026.6" y="418.1" fill="#0D0F0F" width="0.5" height="0.5"/>
		</g>
		<g>
			<rect id="p_38_" x="3026.6" y="419.8" fill="#0D0F0F" width="0.5" height="0.5"/>
		</g>
		<g>
			<rect id="p_39_" x="3026.6" y="420.9" fill="#0D0F0F" width="0.5" height="0.5"/>
		</g>
		<g>
			<rect id="p_40_" x="3026.6" y="421.4" fill="#0D0F0F" width="0.5" height="0.5"/>
		</g>
		<g>
			<rect id="p_41_" x="3026.6" y="422" fill="#0D0F0F" width="0.5" height="0.5"/>
		</g>
		<g>
			<rect id="p_42_" x="3026.6" y="423.1" fill="#0D0F0F" width="0.5" height="0.5"/>
		</g>
		<g>
			<rect id="p_43_" x="3027.1" y="409.8" fill="#0D0F0F" width="0.5" height="0.5"/>
		</g>
		<g>
			<rect id="p_44_" x="3027.1" y="410.9" fill="#0D0F0F" width="0.5" height="0.5"/>
		</g>
		<g>
			<rect id="p_45_" x="3027.1" y="411.5" fill="#0D0F0F" width="0.5" height="0.5"/>
		</g>
		<g>
			<rect id="p_46_" x="3027.1" y="412" fill="#0D0F0F" width="0.5" height="0.5"/>
		</g>
		<g>
			<rect id="p_47_" x="3027.1" y="413.1" fill="#0D0F0F" width="0.5" height="0.5"/>
		</g>
		<g>
			<rect id="p_48_" x="3027.1" y="414.2" fill="#0D0F0F" width="0.5" height="0.5"/>
		</g>
		<g>
			<rect id="p_49_" x="3027.1" y="415.3" fill="#0D0F0F" width="0.5" height="0.5"/>
		</g>
		<g>
			<rect id="p_50_" x="3027.1" y="416" fill="#0D0F0F" width="0.5" height="0.5"/>
		</g>
		<g>
			<rect id="p_51_" x="3027.1" y="416.5" fill="#0D0F0F" width="0.5" height="0.5"/>
		</g>
		<g>
			<rect id="p_52_" x="3027.1" y="417.6" fill="#0D0F0F" width="0.5" height="0.5"/>
		</g>
		<g>
			<rect id="p_53_" x="3027.1" y="418.1" fill="#0D0F0F" width="0.5" height="0.5"/>
		</g>
		<g>
			<rect id="p_54_" x="3027.1" y="419.8" fill="#0D0F0F" width="0.5" height="0.5"/>
		</g>
		<g>
			<rect id="p_55_" x="3027.1" y="420.9" fill="#0D0F0F" width="0.5" height="0.5"/>
		</g>
		<g>
			<rect id="p_56_" x="3027.1" y="421.4" fill="#0D0F0F" width="0.5" height="0.5"/>
		</g>
		<g>
			<rect id="p_57_" x="3027.1" y="422" fill="#0D0F0F" width="0.5" height="0.5"/>
		</g>
		<g>
			<rect id="p_58_" x="3027.1" y="423.1" fill="#0D0F0F" width="0.5" height="0.5"/>
		</g>
		<g>
			<rect id="p_59_" x="3027.7" y="409.8" fill="#0D0F0F" width="0.5" height="0.5"/>
		</g>
		<g>
			<rect id="p_60_" x="3027.7" y="410.9" fill="#0D0F0F" width="0.5" height="0.5"/>
		</g>
		<g>
			<rect id="p_61_" x="3027.7" y="411.5" fill="#0D0F0F" width="0.5" height="0.5"/>
		</g>
		<g>
			<rect id="p_62_" x="3027.7" y="412" fill="#0D0F0F" width="0.5" height="0.5"/>
		</g>
		<g>
			<rect id="p_63_" x="3027.7" y="413.1" fill="#0D0F0F" width="0.5" height="0.5"/>
		</g>
		<g>
			<rect id="p_64_" x="3027.7" y="414.8" fill="#0D0F0F" width="0.5" height="0.5"/>
		</g>
		<g>
			<rect id="p_65_" x="3027.7" y="415.3" fill="#0D0F0F" width="0.5" height="0.5"/>
		</g>
		<g>
			<rect id="p_66_" x="3027.7" y="416" fill="#0D0F0F" width="0.5" height="0.5"/>
		</g>
		<g>
			<rect id="p_67_" x="3027.7" y="416.5" fill="#0D0F0F" width="0.5" height="0.5"/>
		</g>
		<g>
			<rect id="p_68_" x="3027.7" y="419.8" fill="#0D0F0F" width="0.5" height="0.5"/>
		</g>
		<g>
			<rect id="p_69_" x="3027.7" y="420.9" fill="#0D0F0F" width="0.5" height="0.5"/>
		</g>
		<g>
			<rect id="p_70_" x="3027.7" y="421.4" fill="#0D0F0F" width="0.5" height="0.5"/>
		</g>
		<g>
			<rect id="p_71_" x="3027.7" y="422" fill="#0D0F0F" width="0.5" height="0.5"/>
		</g>
		<g>
			<rect id="p_72_" x="3027.7" y="423.1" fill="#0D0F0F" width="0.5" height="0.5"/>
		</g>
		<g>
			<rect id="p_73_" x="3028.2" y="409.8" fill="#0D0F0F" width="0.5" height="0.5"/>
		</g>
		<g>
			<rect id="p_74_" x="3028.2" y="413.1" fill="#0D0F0F" width="0.5" height="0.5"/>
		</g>
		<g>
			<rect id="p_75_" x="3028.2" y="414.8" fill="#0D0F0F" width="0.5" height="0.5"/>
		</g>
		<g>
			<rect id="p_76_" x="3028.2" y="416" fill="#0D0F0F" width="0.5" height="0.5"/>
		</g>
		<g>
			<rect id="p_77_" x="3028.2" y="416.5" fill="#0D0F0F" width="0.5" height="0.5"/>
		</g>
		<g>
			<rect id="p_78_" x="3028.2" y="417.1" fill="#0D0F0F" width="0.5" height="0.5"/>
		</g>
		<g>
			<rect id="p_79_" x="3028.2" y="417.6" fill="#0D0F0F" width="0.5" height="0.5"/>
		</g>
		<g>
			<rect id="p_80_" x="3028.2" y="418.1" fill="#0D0F0F" width="0.5" height="0.5"/>
		</g>
		<g>
			<rect id="p_81_" x="3028.2" y="418.7" fill="#0D0F0F" width="0.5" height="0.5"/>
		</g>
		<g>
			<rect id="p_82_" x="3028.2" y="419.8" fill="#0D0F0F" width="0.5" height="0.5"/>
		</g>
		<g>
			<rect id="p_83_" x="3028.2" y="423.1" fill="#0D0F0F" width="0.5" height="0.5"/>
		</g>
		<g>
			<rect id="p_84_" x="3028.8" y="409.8" fill="#0D0F0F" width="0.5" height="0.5"/>
		</g>
		<g>
			<rect id="p_85_" x="3028.8" y="410.4" fill="#0D0F0F" width="0.5" height="0.5"/>
		</g>
		<g>
			<rect id="p_86_" x="3028.8" y="410.9" fill="#0D0F0F" width="0.5" height="0.5"/>
		</g>
		<g>
			<rect id="p_87_" x="3028.8" y="411.5" fill="#0D0F0F" width="0.5" height="0.5"/>
		</g>
		<g>
			<rect id="p_88_" x="3028.8" y="412" fill="#0D0F0F" width="0.5" height="0.5"/>
		</g>
		<g>
			<rect id="p_89_" x="3028.8" y="412.6" fill="#0D0F0F" width="0.5" height="0.5"/>
		</g>
		<g>
			<rect id="p_90_" x="3028.8" y="413.1" fill="#0D0F0F" width="0.5" height="0.5"/>
		</g>
		<g>
			<rect id="p_91_" x="3028.8" y="414.2" fill="#0D0F0F" width="0.5" height="0.5"/>
		</g>
		<g>
			<rect id="p_92_" x="3028.8" y="415.3" fill="#0D0F0F" width="0.5" height="0.5"/>
		</g>
		<g>
			<rect id="p_93_" x="3028.8" y="416.5" fill="#0D0F0F" width="0.5" height="0.5"/>
		</g>
		<g>
			<rect id="p_94_" x="3028.8" y="417.6" fill="#0D0F0F" width="0.5" height="0.5"/>
		</g>
		<g>
			<rect id="p_95_" x="3028.8" y="418.7" fill="#0D0F0F" width="0.5" height="0.5"/>
		</g>
		<g>
			<rect id="p_96_" x="3028.8" y="419.8" fill="#0D0F0F" width="0.5" height="0.5"/>
		</g>
		<g>
			<rect id="p_97_" x="3028.8" y="420.3" fill="#0D0F0F" width="0.5" height="0.5"/>
		</g>
		<g>
			<rect id="p_98_" x="3028.8" y="420.9" fill="#0D0F0F" width="0.5" height="0.5"/>
		</g>
		<g>
			<rect id="p_99_" x="3028.8" y="421.4" fill="#0D0F0F" width="0.5" height="0.5"/>
		</g>
		<g>
			<rect id="p_100_" x="3028.8" y="422" fill="#0D0F0F" width="0.5" height="0.5"/>
		</g>
		<g>
			<rect id="p_101_" x="3028.8" y="422.5" fill="#0D0F0F" width="0.5" height="0.5"/>
		</g>
		<g>
			<rect id="p_102_" x="3028.8" y="423.1" fill="#0D0F0F" width="0.5" height="0.5"/>
		</g>
		<g>
			<rect id="p_103_" x="3029.3" y="414.8" fill="#0D0F0F" width="0.5" height="0.5"/>
		</g>
		<g>
			<rect id="p_104_" x="3029.3" y="416" fill="#0D0F0F" width="0.5" height="0.5"/>
		</g>
		<g>
			<rect id="p_105_" x="3029.3" y="417.6" fill="#0D0F0F" width="0.5" height="0.5"/>
		</g>
		<g>
			<rect id="p_106_" x="3029.3" y="418.1" fill="#0D0F0F" width="0.5" height="0.5"/>
		</g>
		<g>
			<rect id="p_107_" x="3029.9" y="409.8" fill="#0D0F0F" width="0.5" height="0.5"/>
		</g>
		<g>
			<rect id="p_108_" x="3029.9" y="410.9" fill="#0D0F0F" width="0.5" height="0.5"/>
		</g>
		<g>
			<rect id="p_109_" x="3029.9" y="411.5" fill="#0D0F0F" width="0.5" height="0.5"/>
		</g>
		<g>
			<rect id="p_110_" x="3029.9" y="412" fill="#0D0F0F" width="0.5" height="0.5"/>
		</g>
		<g>
			<rect id="p_111_" x="3029.9" y="413.1" fill="#0D0F0F" width="0.5" height="0.5"/>
		</g>
		<g>
			<rect id="p_112_" x="3029.9" y="414.2" fill="#0D0F0F" width="0.5" height="0.5"/>
		</g>
		<g>
			<rect id="p_113_" x="3029.9" y="416" fill="#0D0F0F" width="0.5" height="0.5"/>
		</g>
		<g>
			<rect id="p_114_" x="3029.9" y="416.5" fill="#0D0F0F" width="0.5" height="0.5"/>
		</g>
		<g>
			<rect id="p_115_" x="3029.9" y="417.1" fill="#0D0F0F" width="0.5" height="0.5"/>
		</g>
		<g>
			<rect id="p_116_" x="3029.9" y="417.6" fill="#0D0F0F" width="0.5" height="0.5"/>
		</g>
		<g>
			<rect id="p_117_" x="3029.9" y="419.2" fill="#0D0F0F" width="0.5" height="0.5"/>
		</g>
		<g>
			<rect id="p_118_" x="3029.9" y="421.4" fill="#0D0F0F" width="0.5" height="0.5"/>
		</g>
		<g>
			<rect id="p_119_" x="3029.9" y="422" fill="#0D0F0F" width="0.5" height="0.5"/>
		</g>
		<g>
			<rect id="p_120_" x="3029.9" y="422.5" fill="#0D0F0F" width="0.5" height="0.5"/>
		</g>
		<g>
			<rect id="p_121_" x="3029.9" y="423.1" fill="#0D0F0F" width="0.5" height="0.5"/>
		</g>
		<g>
			<rect id="p_122_" x="3030.4" y="409.8" fill="#0D0F0F" width="0.5" height="0.5"/>
		</g>
		<g>
			<rect id="p_123_" x="3030.4" y="411.5" fill="#0D0F0F" width="0.5" height="0.5"/>
		</g>
		<g>
			<rect id="p_124_" x="3030.4" y="412" fill="#0D0F0F" width="0.5" height="0.5"/>
		</g>
		<g>
			<rect id="p_125_" x="3030.4" y="412.6" fill="#0D0F0F" width="0.5" height="0.5"/>
		</g>
		<g>
			<rect id="p_126_" x="3030.4" y="413.7" fill="#0D0F0F" width="0.5" height="0.5"/>
		</g>
		<g>
			<rect id="p_127_" x="3030.4" y="414.8" fill="#0D0F0F" width="0.5" height="0.5"/>
		</g>
		<g>
			<rect id="p_128_" x="3030.4" y="416.5" fill="#0D0F0F" width="0.5" height="0.5"/>
		</g>
		<g>
			<rect id="p_129_" x="3030.4" y="417.1" fill="#0D0F0F" width="0.5" height="0.5"/>
		</g>
		<g>
			<rect id="p_130_" x="3030.4" y="420.3" fill="#0D0F0F" width="0.5" height="0.5"/>
		</g>
		<g>
			<rect id="p_131_" x="3030.4" y="421.4" fill="#0D0F0F" width="0.5" height="0.5"/>
		</g>
		<g>
			<rect id="p_132_" x="3030.4" y="422" fill="#0D0F0F" width="0.5" height="0.5"/>
		</g>
		<g>
			<rect id="p_133_" x="3030.4" y="423.1" fill="#0D0F0F" width="0.5" height="0.5"/>
		</g>
		<g>
			<rect id="p_134_" x="3031" y="410.4" fill="#0D0F0F" width="0.5" height="0.5"/>
		</g>
		<g>
			<rect id="p_135_" x="3031" y="413.1" fill="#0D0F0F" width="0.5" height="0.5"/>
		</g>
		<g>
			<rect id="p_136_" x="3031" y="417.1" fill="#0D0F0F" width="0.5" height="0.5"/>
		</g>
		<g>
			<rect id="p_137_" x="3031" y="418.1" fill="#0D0F0F" width="0.5" height="0.5"/>
		</g>
		<g>
			<rect id="p_138_" x="3031" y="419.2" fill="#0D0F0F" width="0.5" height="0.5"/>
		</g>
		<g>
			<rect id="p_139_" x="3031" y="422" fill="#0D0F0F" width="0.5" height="0.5"/>
		</g>
		<g>
			<rect id="p_140_" x="3031" y="422.5" fill="#0D0F0F" width="0.5" height="0.5"/>
		</g>
		<g>
			<rect id="p_141_" x="3031.5" y="409.8" fill="#0D0F0F" width="0.5" height="0.5"/>
		</g>
		<g>
			<rect id="p_142_" x="3031.5" y="410.4" fill="#0D0F0F" width="0.5" height="0.5"/>
		</g>
		<g>
			<rect id="p_143_" x="3031.5" y="410.9" fill="#0D0F0F" width="0.5" height="0.5"/>
		</g>
		<g>
			<rect id="p_144_" x="3031.5" y="411.5" fill="#0D0F0F" width="0.5" height="0.5"/>
		</g>
		<g>
			<rect id="p_145_" x="3031.5" y="413.7" fill="#0D0F0F" width="0.5" height="0.5"/>
		</g>
		<g>
			<rect id="p_146_" x="3031.5" y="414.2" fill="#0D0F0F" width="0.5" height="0.5"/>
		</g>
		<g>
			<rect id="p_147_" x="3031.5" y="414.8" fill="#0D0F0F" width="0.5" height="0.5"/>
		</g>
		<g>
			<rect id="p_148_" x="3031.5" y="415.3" fill="#0D0F0F" width="0.5" height="0.5"/>
		</g>
		<g>
			<rect id="p_149_" x="3031.5" y="416.5" fill="#0D0F0F" width="0.5" height="0.5"/>
		</g>
		<g>
			<rect id="p_150_" x="3031.5" y="418.1" fill="#0D0F0F" width="0.5" height="0.5"/>
		</g>
		<g>
			<rect id="p_151_" x="3031.5" y="418.7" fill="#0D0F0F" width="0.5" height="0.5"/>
		</g>
		<g>
			<rect id="p_152_" x="3031.5" y="419.2" fill="#0D0F0F" width="0.5" height="0.5"/>
		</g>
		<g>
			<rect id="p_153_" x="3031.5" y="420.3" fill="#0D0F0F" width="0.5" height="0.5"/>
		</g>
		<g>
			<rect id="p_154_" x="3031.5" y="421.4" fill="#0D0F0F" width="0.5" height="0.5"/>
		</g>
		<g>
			<rect id="p_155_" x="3031.5" y="422" fill="#0D0F0F" width="0.5" height="0.5"/>
		</g>
		<g>
			<rect id="p_156_" x="3031.5" y="423.1" fill="#0D0F0F" width="0.5" height="0.5"/>
		</g>
		<g>
			<rect id="p_157_" x="3032" y="410.9" fill="#0D0F0F" width="0.5" height="0.5"/>
		</g>
		<g>
			<rect id="p_158_" x="3032" y="411.5" fill="#0D0F0F" width="0.5" height="0.5"/>
		</g>
		<g>
			<rect id="p_159_" x="3032" y="412" fill="#0D0F0F" width="0.5" height="0.5"/>
		</g>
		<g>
			<rect id="p_160_" x="3032" y="412.6" fill="#0D0F0F" width="0.5" height="0.5"/>
		</g>
		<g>
			<rect id="p_161_" x="3032" y="413.1" fill="#0D0F0F" width="0.5" height="0.5"/>
		</g>
		<g>
			<rect id="p_162_" x="3032" y="416.5" fill="#0D0F0F" width="0.5" height="0.5"/>
		</g>
		<g>
			<rect id="p_163_" x="3032" y="417.1" fill="#0D0F0F" width="0.5" height="0.5"/>
		</g>
		<g>
			<rect id="p_164_" x="3032" y="417.6" fill="#0D0F0F" width="0.5" height="0.5"/>
		</g>
		<g>
			<rect id="p_165_" x="3032" y="418.1" fill="#0D0F0F" width="0.5" height="0.5"/>
		</g>
		<g>
			<rect id="p_166_" x="3032" y="419.2" fill="#0D0F0F" width="0.5" height="0.5"/>
		</g>
		<g>
			<rect id="p_167_" x="3032" y="422" fill="#0D0F0F" width="0.5" height="0.5"/>
		</g>
		<g>
			<rect id="p_168_" x="3032" y="422.5" fill="#0D0F0F" width="0.5" height="0.5"/>
		</g>
		<g>
			<rect id="p_169_" x="3032" y="423.1" fill="#0D0F0F" width="0.5" height="0.5"/>
		</g>
		<g>
			<rect id="p_170_" x="3032.6" y="410.9" fill="#0D0F0F" width="0.5" height="0.5"/>
		</g>
		<g>
			<rect id="p_171_" x="3032.6" y="411.5" fill="#0D0F0F" width="0.5" height="0.5"/>
		</g>
		<g>
			<rect id="p_172_" x="3032.6" y="412.6" fill="#0D0F0F" width="0.5" height="0.5"/>
		</g>
		<g>
			<rect id="p_173_" x="3032.6" y="415.3" fill="#0D0F0F" width="0.5" height="0.5"/>
		</g>
		<g>
			<rect id="p_174_" x="3032.6" y="416" fill="#0D0F0F" width="0.5" height="0.5"/>
		</g>
		<g>
			<rect id="p_175_" x="3032.6" y="416.5" fill="#0D0F0F" width="0.5" height="0.5"/>
		</g>
		<g>
			<rect id="p_176_" x="3032.6" y="417.6" fill="#0D0F0F" width="0.5" height="0.5"/>
		</g>
		<g>
			<rect id="p_177_" x="3032.6" y="418.7" fill="#0D0F0F" width="0.5" height="0.5"/>
		</g>
		<g>
			<rect id="p_178_" x="3032.6" y="419.2" fill="#0D0F0F" width="0.5" height="0.5"/>
		</g>
		<g>
			<rect id="p_179_" x="3032.6" y="419.8" fill="#0D0F0F" width="0.5" height="0.5"/>
		</g>
		<g>
			<rect id="p_180_" x="3032.6" y="421.4" fill="#0D0F0F" width="0.5" height="0.5"/>
		</g>
		<g>
			<rect id="p_181_" x="3032.6" y="422" fill="#0D0F0F" width="0.5" height="0.5"/>
		</g>
		<g>
			<rect id="p_182_" x="3032.6" y="422.5" fill="#0D0F0F" width="0.5" height="0.5"/>
		</g>
		<g>
			<rect id="p_183_" x="3032.6" y="423.1" fill="#0D0F0F" width="0.5" height="0.5"/>
		</g>
		<g>
			<rect id="p_184_" x="3033.1" y="410.9" fill="#0D0F0F" width="0.5" height="0.5"/>
		</g>
		<g>
			<rect id="p_185_" x="3033.1" y="411.5" fill="#0D0F0F" width="0.5" height="0.5"/>
		</g>
		<g>
			<rect id="p_186_" x="3033.1" y="412" fill="#0D0F0F" width="0.5" height="0.5"/>
		</g>
		<g>
			<rect id="p_187_" x="3033.1" y="412.6" fill="#0D0F0F" width="0.5" height="0.5"/>
		</g>
		<g>
			<rect id="p_188_" x="3033.1" y="413.1" fill="#0D0F0F" width="0.5" height="0.5"/>
		</g>
		<g>
			<rect id="p_189_" x="3033.1" y="413.7" fill="#0D0F0F" width="0.5" height="0.5"/>
		</g>
		<g>
			<rect id="p_190_" x="3033.1" y="414.2" fill="#0D0F0F" width="0.5" height="0.5"/>
		</g>
		<g>
			<rect id="p_191_" x="3033.1" y="415.3" fill="#0D0F0F" width="0.5" height="0.5"/>
		</g>
		<g>
			<rect id="p_192_" x="3033.1" y="416.5" fill="#0D0F0F" width="0.5" height="0.5"/>
		</g>
		<g>
			<rect id="p_193_" x="3033.1" y="417.1" fill="#0D0F0F" width="0.5" height="0.5"/>
		</g>
		<g>
			<rect id="p_194_" x="3033.1" y="418.1" fill="#0D0F0F" width="0.5" height="0.5"/>
		</g>
		<g>
			<rect id="p_195_" x="3033.1" y="420.9" fill="#0D0F0F" width="0.5" height="0.5"/>
		</g>
		<g>
			<rect id="p_196_" x="3033.1" y="422" fill="#0D0F0F" width="0.5" height="0.5"/>
		</g>
		<g>
			<rect id="p_197_" x="3033.1" y="422.5" fill="#0D0F0F" width="0.5" height="0.5"/>
		</g>
		<g>
			<rect id="p_198_" x="3033.1" y="423.1" fill="#0D0F0F" width="0.5" height="0.5"/>
		</g>
		<g>
			<rect id="p_199_" x="3033.7" y="411.5" fill="#0D0F0F" width="0.5" height="0.5"/>
		</g>
		<g>
			<rect id="p_200_" x="3033.7" y="412" fill="#0D0F0F" width="0.5" height="0.5"/>
		</g>
		<g>
			<rect id="p_201_" x="3033.7" y="413.7" fill="#0D0F0F" width="0.5" height="0.5"/>
		</g>
		<g>
			<rect id="p_202_" x="3033.7" y="416" fill="#0D0F0F" width="0.5" height="0.5"/>
		</g>
		<g>
			<rect id="p_203_" x="3033.7" y="417.1" fill="#0D0F0F" width="0.5" height="0.5"/>
		</g>
		<g>
			<rect id="p_204_" x="3033.7" y="418.1" fill="#0D0F0F" width="0.5" height="0.5"/>
		</g>
		<g>
			<rect id="p_205_" x="3033.7" y="418.7" fill="#0D0F0F" width="0.5" height="0.5"/>
		</g>
		<g>
			<rect id="p_206_" x="3033.7" y="420.3" fill="#0D0F0F" width="0.5" height="0.5"/>
		</g>
		<g>
			<rect id="p_207_" x="3033.7" y="422" fill="#0D0F0F" width="0.5" height="0.5"/>
		</g>
		<g>
			<rect id="p_208_" x="3034.3" y="409.8" fill="#0D0F0F" width="0.5" height="0.5"/>
		</g>
		<g>
			<rect id="p_209_" x="3034.3" y="410.4" fill="#0D0F0F" width="0.5" height="0.5"/>
		</g>
		<g>
			<rect id="p_210_" x="3034.3" y="412" fill="#0D0F0F" width="0.5" height="0.5"/>
		</g>
		<g>
			<rect id="p_211_" x="3034.3" y="412.6" fill="#0D0F0F" width="0.5" height="0.5"/>
		</g>
		<g>
			<rect id="p_212_" x="3034.3" y="413.1" fill="#0D0F0F" width="0.5" height="0.5"/>
		</g>
		<g>
			<rect id="p_213_" x="3034.3" y="413.7" fill="#0D0F0F" width="0.5" height="0.5"/>
		</g>
		<g>
			<rect id="p_214_" x="3034.3" y="414.2" fill="#0D0F0F" width="0.5" height="0.5"/>
		</g>
		<g>
			<rect id="p_215_" x="3034.3" y="414.8" fill="#0D0F0F" width="0.5" height="0.5"/>
		</g>
		<g>
			<rect id="p_216_" x="3034.3" y="415.3" fill="#0D0F0F" width="0.5" height="0.5"/>
		</g>
		<g>
			<rect id="p_217_" x="3034.3" y="418.1" fill="#0D0F0F" width="0.5" height="0.5"/>
		</g>
		<g>
			<rect id="p_218_" x="3034.3" y="418.7" fill="#0D0F0F" width="0.5" height="0.5"/>
		</g>
		<g>
			<rect id="p_219_" x="3034.3" y="419.2" fill="#0D0F0F" width="0.5" height="0.5"/>
		</g>
		<g>
			<rect id="p_220_" x="3034.3" y="419.8" fill="#0D0F0F" width="0.5" height="0.5"/>
		</g>
		<g>
			<rect id="p_221_" x="3034.3" y="420.3" fill="#0D0F0F" width="0.5" height="0.5"/>
		</g>
		<g>
			<rect id="p_222_" x="3034.3" y="420.9" fill="#0D0F0F" width="0.5" height="0.5"/>
		</g>
		<g>
			<rect id="p_223_" x="3034.3" y="421.4" fill="#0D0F0F" width="0.5" height="0.5"/>
		</g>
		<g>
			<rect id="p_224_" x="3034.3" y="422" fill="#0D0F0F" width="0.5" height="0.5"/>
		</g>
		<g>
			<rect id="p_225_" x="3034.9" y="414.2" fill="#0D0F0F" width="0.5" height="0.5"/>
		</g>
		<g>
			<rect id="p_226_" x="3034.9" y="415.3" fill="#0D0F0F" width="0.5" height="0.5"/>
		</g>
		<g>
			<rect id="p_227_" x="3034.9" y="416" fill="#0D0F0F" width="0.5" height="0.5"/>
		</g>
		<g>
			<rect id="p_228_" x="3034.9" y="417.1" fill="#0D0F0F" width="0.5" height="0.5"/>
		</g>
		<g>
			<rect id="p_229_" x="3034.9" y="417.6" fill="#0D0F0F" width="0.5" height="0.5"/>
		</g>
		<g>
			<rect id="p_230_" x="3034.9" y="418.7" fill="#0D0F0F" width="0.5" height="0.5"/>
		</g>
		<g>
			<rect id="p_231_" x="3034.9" y="420.9" fill="#0D0F0F" width="0.5" height="0.5"/>
		</g>
		<g>
			<rect id="p_232_" x="3034.9" y="421.4" fill="#0D0F0F" width="0.5" height="0.5"/>
		</g>
		<g>
			<rect id="p_233_" x="3034.9" y="422" fill="#0D0F0F" width="0.5" height="0.5"/>
		</g>
		<g>
			<rect id="p_234_" x="3034.9" y="423.1" fill="#0D0F0F" width="0.5" height="0.5"/>
		</g>
		<g>
			<rect id="p_235_" x="3035.4" y="409.8" fill="#0D0F0F" width="0.5" height="0.5"/>
		</g>
		<g>
			<rect id="p_236_" x="3035.4" y="410.4" fill="#0D0F0F" width="0.5" height="0.5"/>
		</g>
		<g>
			<rect id="p_237_" x="3035.4" y="410.9" fill="#0D0F0F" width="0.5" height="0.5"/>
		</g>
		<g>
			<rect id="p_238_" x="3035.4" y="411.5" fill="#0D0F0F" width="0.5" height="0.5"/>
		</g>
		<g>
			<rect id="p_239_" x="3035.4" y="412" fill="#0D0F0F" width="0.5" height="0.5"/>
		</g>
		<g>
			<rect id="p_240_" x="3035.4" y="412.6" fill="#0D0F0F" width="0.5" height="0.5"/>
		</g>
		<g>
			<rect id="p_241_" x="3035.4" y="413.1" fill="#0D0F0F" width="0.5" height="0.5"/>
		</g>
		<g>
			<rect id="p_242_" x="3035.4" y="415.3" fill="#0D0F0F" width="0.5" height="0.5"/>
		</g>
		<g>
			<rect id="p_243_" x="3035.4" y="416" fill="#0D0F0F" width="0.5" height="0.5"/>
		</g>
		<g>
			<rect id="p_244_" x="3035.4" y="416.5" fill="#0D0F0F" width="0.5" height="0.5"/>
		</g>
		<g>
			<rect id="p_245_" x="3035.4" y="417.1" fill="#0D0F0F" width="0.5" height="0.5"/>
		</g>
		<g>
			<rect id="p_246_" x="3035.4" y="417.6" fill="#0D0F0F" width="0.5" height="0.5"/>
		</g>
		<g>
			<rect id="p_247_" x="3035.4" y="418.7" fill="#0D0F0F" width="0.5" height="0.5"/>
		</g>
		<g>
			<rect id="p_248_" x="3035.4" y="419.8" fill="#0D0F0F" width="0.5" height="0.5"/>
		</g>
		<g>
			<rect id="p_249_" x="3035.4" y="420.9" fill="#0D0F0F" width="0.5" height="0.5"/>
		</g>
		<g>
			<rect id="p_250_" x="3035.4" y="421.4" fill="#0D0F0F" width="0.5" height="0.5"/>
		</g>
		<g>
			<rect id="p_251_" x="3035.4" y="422" fill="#0D0F0F" width="0.5" height="0.5"/>
		</g>
		<g>
			<rect id="p_252_" x="3036" y="409.8" fill="#0D0F0F" width="0.5" height="0.5"/>
		</g>
		<g>
			<rect id="p_253_" x="3036" y="413.1" fill="#0D0F0F" width="0.5" height="0.5"/>
		</g>
		<g>
			<rect id="p_254_" x="3036" y="414.8" fill="#0D0F0F" width="0.5" height="0.5"/>
		</g>
		<g>
			<rect id="p_255_" x="3036" y="416.5" fill="#0D0F0F" width="0.5" height="0.5"/>
		</g>
		<g>
			<rect id="p_256_" x="3036" y="417.1" fill="#0D0F0F" width="0.5" height="0.5"/>
		</g>
		<g>
			<rect id="p_257_" x="3036" y="418.1" fill="#0D0F0F" width="0.5" height="0.5"/>
		</g>
		<g>
			<rect id="p_258_" x="3036" y="418.7" fill="#0D0F0F" width="0.5" height="0.5"/>
		</g>
		<g>
			<rect id="p_259_" x="3036" y="420.9" fill="#0D0F0F" width="0.5" height="0.5"/>
		</g>
		<g>
			<rect id="p_260_" x="3036" y="423.1" fill="#0D0F0F" width="0.5" height="0.5"/>
		</g>
		<g>
			<rect id="p_261_" x="3036.5" y="409.8" fill="#0D0F0F" width="0.5" height="0.5"/>
		</g>
		<g>
			<rect id="p_262_" x="3036.5" y="410.9" fill="#0D0F0F" width="0.5" height="0.5"/>
		</g>
		<g>
			<rect id="p_263_" x="3036.5" y="411.5" fill="#0D0F0F" width="0.5" height="0.5"/>
		</g>
		<g>
			<rect id="p_264_" x="3036.5" y="412" fill="#0D0F0F" width="0.5" height="0.5"/>
		</g>
		<g>
			<rect id="p_265_" x="3036.5" y="413.1" fill="#0D0F0F" width="0.5" height="0.5"/>
		</g>
		<g>
			<rect id="p_266_" x="3036.5" y="414.2" fill="#0D0F0F" width="0.5" height="0.5"/>
		</g>
		<g>
			<rect id="p_267_" x="3036.5" y="416.5" fill="#0D0F0F" width="0.5" height="0.5"/>
		</g>
		<g>
			<rect id="p_268_" x="3036.5" y="417.1" fill="#0D0F0F" width="0.5" height="0.5"/>
		</g>
		<g>
			<rect id="p_269_" x="3036.5" y="417.6" fill="#0D0F0F" width="0.5" height="0.5"/>
		</g>
		<g>
			<rect id="p_270_" x="3036.5" y="418.1" fill="#0D0F0F" width="0.5" height="0.5"/>
		</g>
		<g>
			<rect id="p_271_" x="3036.5" y="418.7" fill="#0D0F0F" width="0.5" height="0.5"/>
		</g>
		<g>
			<rect id="p_272_" x="3036.5" y="419.2" fill="#0D0F0F" width="0.5" height="0.5"/>
		</g>
		<g>
			<rect id="p_273_" x="3036.5" y="419.8" fill="#0D0F0F" width="0.5" height="0.5"/>
		</g>
		<g>
			<rect id="p_274_" x="3036.5" y="420.3" fill="#0D0F0F" width="0.5" height="0.5"/>
		</g>
		<g>
			<rect id="p_275_" x="3036.5" y="420.9" fill="#0D0F0F" width="0.5" height="0.5"/>
		</g>
		<g>
			<rect id="p_276_" x="3036.5" y="421.4" fill="#0D0F0F" width="0.5" height="0.5"/>
		</g>
		<g>
			<rect id="p_277_" x="3036.5" y="422" fill="#0D0F0F" width="0.5" height="0.5"/>
		</g>
		<g>
			<rect id="p_278_" x="3036.5" y="422.5" fill="#0D0F0F" width="0.5" height="0.5"/>
		</g>
		<g>
			<rect id="p_279_" x="3036.5" y="423.1" fill="#0D0F0F" width="0.5" height="0.5"/>
		</g>
		<g>
			<rect id="p_280_" x="3037.1" y="409.8" fill="#0D0F0F" width="0.5" height="0.5"/>
		</g>
		<g>
			<rect id="p_281_" x="3037.1" y="410.9" fill="#0D0F0F" width="0.5" height="0.5"/>
		</g>
		<g>
			<rect id="p_282_" x="3037.1" y="411.5" fill="#0D0F0F" width="0.5" height="0.5"/>
		</g>
		<g>
			<rect id="p_283_" x="3037.1" y="412" fill="#0D0F0F" width="0.5" height="0.5"/>
		</g>
		<g>
			<rect id="p_284_" x="3037.1" y="413.1" fill="#0D0F0F" width="0.5" height="0.5"/>
		</g>
		<g>
			<rect id="p_285_" x="3037.1" y="414.2" fill="#0D0F0F" width="0.5" height="0.5"/>
		</g>
		<g>
			<rect id="p_286_" x="3037.1" y="416" fill="#0D0F0F" width="0.5" height="0.5"/>
		</g>
		<g>
			<rect id="p_287_" x="3037.1" y="418.7" fill="#0D0F0F" width="0.5" height="0.5"/>
		</g>
		<g>
			<rect id="p_288_" x="3037.1" y="420.9" fill="#0D0F0F" width="0.5" height="0.5"/>
		</g>
		<g>
			<rect id="p_289_" x="3037.1" y="421.4" fill="#0D0F0F" width="0.5" height="0.5"/>
		</g>
		<g>
			<rect id="p_290_" x="3037.1" y="423.1" fill="#0D0F0F" width="0.5" height="0.5"/>
		</g>
		<g>
			<rect id="p_291_" x="3037.6" y="409.8" fill="#0D0F0F" width="0.5" height="0.5"/>
		</g>
		<g>
			<rect id="p_292_" x="3037.6" y="410.9" fill="#0D0F0F" width="0.5" height="0.5"/>
		</g>
		<g>
			<rect id="p_293_" x="3037.6" y="411.5" fill="#0D0F0F" width="0.5" height="0.5"/>
		</g>
		<g>
			<rect id="p_294_" x="3037.6" y="412" fill="#0D0F0F" width="0.5" height="0.5"/>
		</g>
		<g>
			<rect id="p_295_" x="3037.6" y="413.1" fill="#0D0F0F" width="0.5" height="0.5"/>
		</g>
		<g>
			<rect id="p_296_" x="3037.6" y="414.2" fill="#0D0F0F" width="0.5" height="0.5"/>
		</g>
		<g>
			<rect id="p_297_" x="3037.6" y="416" fill="#0D0F0F" width="0.5" height="0.5"/>
		</g>
		<g>
			<rect id="p_298_" x="3037.6" y="416.5" fill="#0D0F0F" width="0.5" height="0.5"/>
		</g>
		<g>
			<rect id="p_299_" x="3037.6" y="417.6" fill="#0D0F0F" width="0.5" height="0.5"/>
		</g>
		<g>
			<rect id="p_300_" x="3037.6" y="418.7" fill="#0D0F0F" width="0.5" height="0.5"/>
		</g>
		<g>
			<rect id="p_301_" x="3037.6" y="419.2" fill="#0D0F0F" width="0.5" height="0.5"/>
		</g>
		<g>
			<rect id="p_302_" x="3037.6" y="419.8" fill="#0D0F0F" width="0.5" height="0.5"/>
		</g>
		<g>
			<rect id="p_303_" x="3037.6" y="421.4" fill="#0D0F0F" width="0.5" height="0.5"/>
		</g>
		<g>
			<rect id="p_304_" x="3037.6" y="422" fill="#0D0F0F" width="0.5" height="0.5"/>
		</g>
		<g>
			<rect id="p_305_" x="3037.6" y="422.5" fill="#0D0F0F" width="0.5" height="0.5"/>
		</g>
		<g>
			<rect id="p_306_" x="3037.6" y="423.1" fill="#0D0F0F" width="0.5" height="0.5"/>
		</g>
		<g>
			<rect id="p_307_" x="3038.2" y="409.8" fill="#0D0F0F" width="0.5" height="0.5"/>
		</g>
		<g>
			<rect id="p_308_" x="3038.2" y="413.1" fill="#0D0F0F" width="0.5" height="0.5"/>
		</g>
		<g>
			<rect id="p_309_" x="3038.2" y="414.8" fill="#0D0F0F" width="0.5" height="0.5"/>
		</g>
		<g>
			<rect id="p_310_" x="3038.2" y="416.5" fill="#0D0F0F" width="0.5" height="0.5"/>
		</g>
		<g>
			<rect id="p_311_" x="3038.2" y="417.6" fill="#0D0F0F" width="0.5" height="0.5"/>
		</g>
		<g>
			<rect id="p_312_" x="3038.2" y="418.7" fill="#0D0F0F" width="0.5" height="0.5"/>
		</g>
		<g>
			<rect id="p_313_" x="3038.2" y="419.8" fill="#0D0F0F" width="0.5" height="0.5"/>
		</g>
		<g>
			<rect id="p_314_" x="3038.2" y="420.3" fill="#0D0F0F" width="0.5" height="0.5"/>
		</g>
		<g>
			<rect id="p_315_" x="3038.2" y="420.9" fill="#0D0F0F" width="0.5" height="0.5"/>
		</g>
		<g>
			<rect id="p_316_" x="3038.2" y="421.4" fill="#0D0F0F" width="0.5" height="0.5"/>
		</g>
		<g>
			<rect id="p_317_" x="3038.2" y="422" fill="#0D0F0F" width="0.5" height="0.5"/>
		</g>
		<g>
			<rect id="p_318_" x="3038.2" y="423.1" fill="#0D0F0F" width="0.5" height="0.5"/>
		</g>
		<g>
			<rect id="p_319_" x="3038.7" y="409.8" fill="#0D0F0F" width="0.5" height="0.5"/>
		</g>
		<g>
			<rect id="p_320_" x="3038.7" y="410.4" fill="#0D0F0F" width="0.5" height="0.5"/>
		</g>
		<g>
			<rect id="p_321_" x="3038.7" y="410.9" fill="#0D0F0F" width="0.5" height="0.5"/>
		</g>
		<g>
			<rect id="p_322_" x="3038.7" y="411.5" fill="#0D0F0F" width="0.5" height="0.5"/>
		</g>
		<g>
			<rect id="p_323_" x="3038.7" y="412" fill="#0D0F0F" width="0.5" height="0.5"/>
		</g>
		<g>
			<rect id="p_324_" x="3038.7" y="412.6" fill="#0D0F0F" width="0.5" height="0.5"/>
		</g>
		<g>
			<rect id="p_325_" x="3038.7" y="413.1" fill="#0D0F0F" width="0.5" height="0.5"/>
		</g>
		<g>
			<rect id="p_326_" x="3038.7" y="414.2" fill="#0D0F0F" width="0.5" height="0.5"/>
		</g>
		<g>
			<rect id="p_327_" x="3038.7" y="416.5" fill="#0D0F0F" width="0.5" height="0.5"/>
		</g>
		<g>
			<rect id="p_328_" x="3038.7" y="417.1" fill="#0D0F0F" width="0.5" height="0.5"/>
		</g>
		<g>
			<rect id="p_329_" x="3038.7" y="418.1" fill="#0D0F0F" width="0.5" height="0.5"/>
		</g>
		<g>
			<rect id="p_330_" x="3038.7" y="418.7" fill="#0D0F0F" width="0.5" height="0.5"/>
		</g>
		<g>
			<rect id="p_331_" x="3038.7" y="419.2" fill="#0D0F0F" width="0.5" height="0.5"/>
		</g>
		<g>
			<rect id="p_332_" x="3038.7" y="419.8" fill="#0D0F0F" width="0.5" height="0.5"/>
		</g>
		<g>
			<rect id="p_333_" x="3038.7" y="420.3" fill="#0D0F0F" width="0.5" height="0.5"/>
		</g>
		<g>
			<rect id="p_334_" x="3038.7" y="420.9" fill="#0D0F0F" width="0.5" height="0.5"/>
		</g>
		<g>
			<rect id="p_335_" x="3038.7" y="421.4" fill="#0D0F0F" width="0.5" height="0.5"/>
		</g>
		<g>
			<rect id="p_336_" x="3038.7" y="423.1" fill="#0D0F0F" width="0.5" height="0.5"/>
		</g>
	</g>
	<g display="inline">
		<path d="M2956,419.8h-18.2V432h-6.1v-30.5h24.4v6.2h-18.3v6.2h18.2v6H2956z"/>
		<path d="M2984,432h-24.4v-30.5h24.3v6.2h-18.3v6.2h18.2v6.1h-18.2v6.2h18.3v6H2984z"/>
		<polygon points="2988.3,395.4 2988.3,401.5 3006.6,401.5 3006.6,407.6 2988.3,407.6 2988.3,413.7 2988.4,413.7 2988.4,413.7 
			3006.6,413.7 3006.6,419.8 2988.4,419.8 2988.4,419.9 2988.2,419.9 2988.2,426 3006.6,426 3006.6,432 2988.2,432 2988.2,438.1 
			3012.6,438.1 3012.6,426 3012.6,407.6 3012.6,395.4 		"/>
		<path d="M3047,405.2c-0.3-0.7-0.8-1.4-1.3-1.9s-1.2-1-1.9-1.3s-1.5-0.5-2.3-0.5H3017V432h24.4c4,0,6.1-2,6.1-6.1v-18.3
			C3047.5,406.8,3047.3,406,3047,405.2z M3041.4,426h-18.3v-18.3h18.3V426z"/>
		<path d="M3082.8,425.6c0,2.1-0.5,3.7-1.3,4.8c-0.9,1.1-2.4,1.6-4.6,1.6h-24.3v-30.5h24.2c2.1,0,3.6,0.5,4.5,1.5
			c0.9,1,1.4,2.5,1.4,4.5v5.2c0,1.3-0.2,2.2-0.6,2.8s-1.1,1.1-2.1,1.3c1,0.2,1.8,0.7,2.2,1.3c0.4,0.6,0.7,1.6,0.7,2.9L3082.8,425.6z
			 M3076.8,413.8v-6.2h-18.3v6.2H3076.8z M3076.8,426v-6.5h-18.3v6.5H3076.8z"/>
		<path d="M3118,432h-6.2v-12.2h-18.3V432h-6.1v-24.4c0-1.9,0.6-3.4,1.7-4.5c1.1-1.1,2.6-1.6,4.4-1.6h18.3c0.9,0,1.7,0.2,2.4,0.5
			c0.8,0.3,1.4,0.7,1.9,1.3c0.5,0.5,0.9,1.2,1.3,1.9c0.3,0.7,0.5,1.5,0.5,2.4V432H3118z M3111.9,413.7v-6.2h-18.3v6.2H3111.9z"/>
		<path d="M3152.2,432h-23.3c-4,0-6.1-2-6.1-6.1v-18.3c0-1.7,0.5-3.1,1.5-4.3c1-1.2,2.5-1.8,4.5-1.8h23.3v6.2h-23.3V426h23.3V432z"
			/>
		<path d="M3186.7,432h-9.3l-15.2-13.3V432h-6.1v-30.5h6.1v12.6l14.7-12.6h9.2l-17.7,14.8L3186.7,432z"/>
	</g>
	<g display="inline">
		<path d="M3235.7,432h-6.2v-17.4l-8.3,17.4h-7.7l-8.3-17.4V432h-6.3v-30.5h6.5l11.9,24.4l12-24.4h6.2V432H3235.7z"/>
		<path d="M3271.3,432h-6.2v-12.2h-18.3V432h-6.1v-24.4c0-1.9,0.6-3.4,1.7-4.5c1.1-1.1,2.6-1.6,4.4-1.6h18.3c0.9,0,1.7,0.2,2.4,0.5
			c0.8,0.3,1.4,0.7,1.9,1.3c0.5,0.5,0.9,1.2,1.3,1.9c0.3,0.7,0.5,1.5,0.5,2.4V432H3271.3z M3265.2,413.7v-6.2h-18.3v6.2H3265.2z"/>
		<path d="M3305.5,432h-23.3c-4,0-6.1-2-6.1-6.1v-18.3c0-1.7,0.5-3.1,1.5-4.3c1-1.2,2.5-1.8,4.5-1.8h23.3v6.2h-23.3V426h23.3V432z"
			/>
		<path d="M3338.9,432h-6.2v-12.2h-17.2V432h-6.2v-30.5h6.2v12.2h17.2v-12.2h6.2V432z"/>
		<path d="M3350.3,432h-6.1v-30.5h6.1V432z"/>
		<path d="M3386.2,432h-3.7l-20.6-20.7V432h-6.2v-30.5h5.2l19.3,19.9v-19.9h6.1V432z"/>
		<path d="M3415.9,432h-24.4v-30.5h24.3v6.2h-18.3v6.2h18.2v6.1h-18.2v6.2h18.3v6H3415.9z"/>
	</g>
	
		<text transform="matrix(1 0 0 1 2933.8506 454.7924)" display="inline" font-family="'SquaresBold'" font-size="12.8248" letter-spacing="3">КОНЦЕРТЫ </text>
	
		<text transform="matrix(1 0 0 1 3052.3342 454.7924)" display="inline" font-family="'MyriadPro-Regular'" font-size="12.8248" letter-spacing="3">×  </text>
	
		<text transform="matrix(1 0 0 1 3075.7676 454.7924)" display="inline" font-family="'SquaresBold'" font-size="12.8248" letter-spacing="3">ОБОРУДОВАНИЕ </text>
	
		<text transform="matrix(1 0 0 1 3248.1887 454.7924)" display="inline" font-family="'MyriadPro-Regular'" font-size="12.8248" letter-spacing="3">×</text>
	
		<text transform="matrix(1 0 0 1 3259.2998 454.7924)" display="inline" font-family="'SquaresBold'" font-size="12.8248" letter-spacing="3"> ЗВУКОЗАПИСЬ</text>
</g>
<g id="Слой_2" display="none">
</g>
</svg>
