<?xml version="1.0" encoding="utf-8"?>
<!-- Generator: Adobe Illustrator 18.0.0, SVG Export Plug-In . SVG Version: 6.00 Build 0)  -->
<!DOCTYPE svg PUBLIC "-//W3C//DTD SVG 1.1//EN" "http://www.w3.org/Graphics/SVG/1.1/DTD/svg11.dtd">
<svg version="1.1" xmlns="http://www.w3.org/2000/svg" xmlns:xlink="http://www.w3.org/1999/xlink" x="0px" y="0px"
	 viewBox="0 0 1213.6 665.8" enable-background="new 0 0 1213.6 665.8" xml:space="preserve">
<g id="Слой_3" display="none">
	<rect x="-84.8" y="-55.7" display="inline" fill="#0C0E0F" width="1383.2" height="782.3"/>
</g>
<g id="Слой_2" display="none">
	<rect x="4.8" y="-784.5" display="inline" fill="#FFFFFF" width="1213.6" height="665.8"/>
	<g display="inline">
		<path fill="#0C0E0F" d="M24.6-238.5L4.8-258.4v-161.3l19.9-20.4h141.1l19.9,20.4v40h-40v-20.2H45.1v121h100.5v-34.8H94.9V-354
			h90.7v95.6l-19.9,19.9H24.6z"/>
		<path fill="#0C0E0F" d="M211.5-238.5v-140.8l60.2-60.8h120.7v201.6h-40v-60.2H251.9v60.2H211.5z M352.4-339.1v-60.8h-60.5
			l-40,40.6v20.2H352.4z"/>
		<path fill="#0C0E0F" d="M562-238.5v-19.9l-20.2-20.5l-20.2-19.9h-60.2v60.2h-40.3v-201.6h161l19.9,20.4v100.8l-19.9,20.2
			l19.9,19.9v40.3H562z M562-339.1v-60.8H461.5v60.8H562z"/>
		<path fill="#0C0E0F" d="M628-238.5v-140.8l60.2-60.8h120.7v201.6h-40v-60.2H668.3v60.2H628z M768.8-339.1v-60.8h-60.5l-40,40.6
			v20.2H768.8z"/>
		<path fill="#0C0E0F" d="M857.5-238.5l-19.9-19.9v-161.3l19.9-20.4h141.1l19.9,20.4v40h-40v-20.2H878v121h100.5v-34.8h-50.7V-354
			h90.7v95.6l-19.9,19.9H857.5z"/>
		<path fill="#0C0E0F" d="M1047.3-238.5v-201.6h171.1v40.3h-130.8v40.6h120.7v40.3h-120.7v40h130.8v40.3H1047.3z"/>
	</g>
	<rect x="4.8" y="-214.5" display="inline" fill="#0C0E0F" width="1213.6" height="95.9"/>
	<g display="inline">
		<path d="M513.8-556.4c-3.6-3.8-7.2-7.7-11.3-10.9c-27.8-20.9-58.2-38.9-91.2-50.4c17.1,16.2,30.1,37.1,51.1,48.8
			C477.9-560.4,495.9-552.5,513.8-556.4z"/>
		<path d="M573.1-563.5c17.7-8.5,37.6-6.6,56.5-9.3c-39-4-81.2,8.2-107.4,38.5c-6.8,5.9-3.8,15.6-4.5,23.4
			C530.3-533.7,548.7-553.6,573.1-563.5z"/>
		<path d="M604.7-546.7c-26.1,3.3-50.5,19.4-62.2,43.2c-6.9,12-8.4,25.7-7.9,39.3h158.6c0-2,0-4-0.1-6
			C693.1-514.9,648.7-552.5,604.7-546.7z"/>
		<path d="M479.3-469.3c1-19.9,0.4-39.9,0.5-59.9c-21.9-4.3-39.6-18.4-57.3-31.1C434-526.3,450.9-492.4,479.3-469.3z"/>
		<path d="M747.5-464.2h6c-1.5-9.1-3.1-18.2-4.7-27.3C747.8-482.4,747.5-473.3,747.5-464.2z"/>
		<path d="M633.2-571.1c12.4,5.6,26,8.5,37.3,16.5c17.1,12.1,32.7,28.2,38.8,48.7c-0.2-9.4,4.1-20.9-3.8-28.3
			C687-554.5,661-569.3,633.2-571.1z"/>
		<path d="M796.3-603.3c-20.9,3.6-44.5,16.3-46.6,39.8C768.7-571.7,785.3-585.7,796.3-603.3z"/>
		<path d="M4.8-784.5v320.4h466c-29.1-26.4-47.3-62.9-59.1-100.1c-4.9-18.2-19.4-31.8-35-41.3c-4.6,8.8-10.6,17.1-11.8,27.2
			c-19.3,2.2-38.5,4.5-57.7,6.6c-5.7-5.4-10.9-11.8-18.1-15.3c-12.8-1.1-25.4,3.5-38,5.2c-25.1,5.5-51.1,7.4-75.6,15.5
			c-3.2-4.7-6.4-9.4-9.5-14.1c-11.4,1.6-21.9,5.6-31.9,11.1c-8.9,0-9-10.2-8.8-16.7c12.9-1.6,26-1.5,38.8-4.4
			c0.3-5.7,0.7-11.3,1.1-17c36.3-2.8,71.7-13.2,107.6-18.9c12.4,0,14.1-15.8,25.1-18.6c6.6-1,13.3-1.2,20-1.6
			c-0.1-4.7-0.1-9.4-0.2-14c-11.3-9-22.4-18.5-34.5-26.5c-22.2-1.1-45.4,2.6-66.8-5c-11.9-5.5-11.2-21-11.3-32
			c-0.5-12,1.6-29,16.1-31.3c20.5-3.5,41.7-6,62.5-2.5c11.8,0.9,28.2,1.5,32.3,15.2c2.6,13.3,2.8,27.5-0.4,40.8
			c-2.5,8.7-12.4,10.8-19.2,15.1c4.1,3.4,8.3,6.9,12.3,10.5c5.9-13.5,22.1-9.7,33.9-11.6c18-2.5,36.2-3.1,54.1-6.5
			c6.6,19.2-2.4,39.6-0.1,59c0.8,4.9,6.9,5.3,10.6,7.2c41.7,12.8,79.1,36.5,113,63.5c17.2-11.7,28-30.3,32.8-50.3
			c6.4-19.9,0.9-43.6,15.2-60.7c16.2-22.6,51.2-26.3,72.8-9.6c11.8,9,19.3,23.3,19.8,38.2c0.8,20.4,5.1,41.1,15.4,59
			c3.5,7,11.1,10.1,17.3,14.1c9.1,5.1,16.7,12.3,25.1,18.3c6.9,1.6,13.8-2.2,20.5-3.5c1.9-16.7,10.1-33.4,25.4-41.7
			c13.3-8.9,29.6-10.3,44.7-14.5c14.8-11.9,30.5-24,50.2-25.9c9.4-5.8,19.1-10.1,30.4-7.3c5.8-17.8,23.3-26.7,36.6-38.1
			c-6-3.9-13.7-6.1-17.8-12.3c-5.7-15.3-5.9-32.8,0.3-48c2.2-5.9,8.8-6.9,14-8.7c26.3-4.6,53.5-5,79.7,0.7
			c15.4,3.3,15.6,22.2,15.7,34.8c-1,10.3-1.4,25.6-13.5,29c-20.9,6.4-43.1,4-64.5,4.1c-11.4,7.3-21.8,16.3-32.5,24.5
			c-5.4,3.6-7.6,9.8-9.3,15.7c9.2,0.8,18.5,0.8,27.6,2.4c9.1,3.6,11.2,16.7,21.5,17.8c30.3,6.1,60.7,11.6,91,17.8
			c6.1,1.4,12.3,1.4,18.6,1.4c0.9,5.5-1.7,12.5,2.4,17c11.7,3.5,23.9,3.6,36,3.6c3.4,7.5,3,15.3-5.8,18.3
			c-10.6-5-21.7-12.7-33.9-10.3c-2.8,4-5.3,8.2-7.9,12.3c-29-7.7-58.8-11.1-88.1-17.3c-8.4-1.5-16.8-3.9-25.3-3.2
			c-7.5,2.9-12.4,9.9-18,15.3c-19.3-1.6-38.5-4.2-57.7-6.5c-3.2-9.3-6.6-18.8-12.6-26.6c-15.1,6.9-24.5,21.2-35.1,33.3
			c-17.3,17.8-37.9,32.3-61.1,41.4c3.6,22.1,7.8,44,11.8,66h456.2v-320.4H4.8z"/>
	</g>
	<g display="inline">
		<path fill="#FFFFFF" d="M285.4-150.2l-3.9-3.9v-31.4l3.9-4h27.5l3.9,4v7.8h-7.8v-3.9h-19.6v23.5h19.6v-3.9h7.8v7.8l-3.9,3.9H285.4
			z"/>
		<path fill="#FFFFFF" d="M345.5-150.2l-3.9-3.9v-31.4l3.9-4h27.5l3.9,4v31.4l-3.9,3.9H345.5z M369-158v-23.5h-19.6v23.5H369z"/>
		<path fill="#FFFFFF" d="M429.6-150.2l-19.6-26.2v26.2h-7.8v-39.2h7.8l19.6,26.1v-26.1h7.8v39.2H429.6z"/>
		<path fill="#FFFFFF" d="M466.7-150.2l-3.9-3.9v-31.4l3.9-4h27.5l3.9,4v7.8h-7.8v-3.9h-19.6v23.5h19.6v-3.9h7.8v7.8l-3.9,3.9H466.7
			z"/>
		<path fill="#FFFFFF" d="M523-150.2v-39.2h33.3v7.8h-25.4v7.9h23.5v7.8h-23.5v7.8h25.4v7.8H523z"/>
		<path fill="#FFFFFF" d="M608.6-150.2v-3.9l-3.9-4l-3.9-3.9H589v11.7h-7.8v-39.2h31.3l3.9,4v19.6l-3.9,3.9l3.9,3.9v7.8H608.6z
			 M608.6-169.7v-11.8H589v11.8H608.6z"/>
		<path fill="#FFFFFF" d="M653.8-150.2v-31.4h-13.7v-7.8h35.2v7.8h-13.6v31.4H653.8z"/>
		<path fill="#FFFFFF" d="M745.2-150.2l-3.9-3.9v-31.4l3.9-4h27.5l3.9,4v7.8h-7.8v-3.9h-19.6v23.5h19.6v-3.9h7.8v7.8l-3.9,3.9H745.2
			z"/>
		<path fill="#FFFFFF" d="M809.3-189.4v31.4h25.4v7.8h-33.3v-39.2H809.3z"/>
		<path fill="#FFFFFF" d="M866.4-189.4v31.4h19.6v-31.4h7.8v35.4l-3.9,3.9h-27.5l-3.9-3.9v-35.4H866.4z"/>
		<path fill="#FFFFFF" d="M919.2-150.2v-39.2h31.3l3.9,4v11.8l-3.9,3.9l3.9,3.9v11.8l-3.9,3.9H919.2z M946.6-173.6v-7.9H927v7.9
			H946.6z M946.6-158v-7.8H927v7.8H946.6z"/>
	</g>
</g>
<g id="Слой_1">
	<rect x="0" y="0" fill="#0C0E0F" width="1213.6" height="665.8"/>
	<g>
		<path fill="#FFFFFF" d="M19.9,546L0,526.1V364.8l19.9-20.4H161l19.9,20.4v40h-40v-20.2H40.3v121h100.5v-34.8H90.2v-40.3h90.7v95.6
			L161,546H19.9z"/>
		<path fill="#FFFFFF" d="M206.8,546V405.1l60.2-60.8h120.7V546h-40v-60.2H247.1V546H206.8z M347.6,445.5v-60.8h-60.5l-40,40.6v20.2
			H347.6z"/>
		<path fill="#FFFFFF" d="M557.3,546v-19.9l-20.2-20.5L517,485.8h-60.2V546h-40.3V344.4h161l19.9,20.4v100.8l-19.9,20.2l19.9,19.9
			V546H557.3z M557.3,445.5v-60.8H456.8v60.8H557.3z"/>
		<path fill="#FFFFFF" d="M623.2,546V405.1l60.2-60.8h120.7V546h-40v-60.2H663.5V546H623.2z M764.1,445.5v-60.8h-60.5l-40,40.6v20.2
			H764.1z"/>
		<path fill="#FFFFFF" d="M852.8,546l-19.9-19.9V364.8l19.9-20.4h141.1l19.9,20.4v40h-40v-20.2H873.2v121h100.5v-34.8H923v-40.3
			h90.7v95.6L993.9,546H852.8z"/>
		<path fill="#FFFFFF" d="M1042.6,546V344.4h171.1v40.3h-130.8v40.6h120.7v40.3h-120.7v40h130.8V546H1042.6z"/>
	</g>
	<rect x="0" y="570" fill="#FFFFFF" width="1213.6" height="95.9"/>
	<g>
		<path fill="#FFFFFF" d="M509,228.1c-3.6-3.8-7.2-7.7-11.3-10.9c-27.8-20.9-58.2-38.9-91.2-50.4c17.1,16.2,30.1,37.1,51.1,48.8
			C473.1,224.1,491.1,232,509,228.1z"/>
		<path fill="#FFFFFF" d="M568.3,221c17.7-8.5,37.6-6.6,56.5-9.3c-39-4-81.2,8.2-107.4,38.5c-6.8,5.9-3.8,15.6-4.5,23.4
			C525.5,250.8,543.9,230.9,568.3,221z"/>
		<path fill="#FFFFFF" d="M600,237.8c-26.1,3.3-50.5,19.4-62.2,43.2c-6.9,12-8.4,25.7-7.9,39.3h158.6c0-2,0-4-0.1-6
			C688.4,269.6,643.9,232,600,237.8z"/>
		<path fill="#FFFFFF" d="M474.6,315.2c1-19.9,0.4-39.9,0.5-59.9c-21.9-4.3-39.6-18.4-57.3-31.1
			C429.2,258.3,446.1,292.1,474.6,315.2z"/>
		<path fill="#FFFFFF" d="M742.7,320.4h6c-1.5-9.1-3.1-18.2-4.7-27.3C743,302.2,742.8,311.3,742.7,320.4z"/>
		<path fill="#FFFFFF" d="M628.5,213.4c12.4,5.6,26,8.5,37.3,16.5c17.1,12.1,32.7,28.2,38.8,48.7c-0.2-9.4,4.1-20.9-3.8-28.3
			C682.3,230,656.3,215.2,628.5,213.4z"/>
		<path fill="#FFFFFF" d="M791.5,181.2c-20.9,3.6-44.5,16.3-46.6,39.8C763.9,212.9,780.5,198.8,791.5,181.2z"/>
		<path fill="#FFFFFF" d="M0,0v320.4h466c-29.1-26.4-47.3-62.9-59.1-100.1c-4.9-18.2-19.4-31.8-35-41.3
			c-4.6,8.8-10.6,17.1-11.8,27.2c-19.3,2.2-38.5,4.5-57.7,6.6c-5.7-5.4-10.9-11.8-18.1-15.3c-12.8-1.1-25.4,3.5-38,5.2
			c-25.1,5.5-51.1,7.4-75.6,15.5c-3.2-4.7-6.4-9.4-9.5-14.1c-11.4,1.6-21.9,5.6-31.9,11.1c-8.9,0-9-10.2-8.8-16.7
			c12.9-1.6,26-1.5,38.8-4.4c0.3-5.7,0.7-11.3,1.1-17c36.3-2.8,71.7-13.2,107.6-18.9c12.4,0,14.1-15.8,25.1-18.6
			c6.6-1,13.3-1.2,20-1.6c-0.1-4.7-0.1-9.4-0.2-14c-11.3-9-22.4-18.5-34.5-26.5c-22.2-1.1-45.4,2.6-66.8-5
			c-11.9-5.5-11.2-21-11.3-32c-0.5-12,1.6-29,16.1-31.3c20.5-3.5,41.7-6,62.5-2.5c11.8,0.9,28.2,1.5,32.3,15.2
			c2.6,13.3,2.8,27.5-0.4,40.8c-2.5,8.7-12.4,10.8-19.2,15.1c4.1,3.4,8.3,6.9,12.3,10.5c5.9-13.5,22.1-9.7,33.9-11.6
			c18-2.5,36.2-3.1,54.1-6.5c6.6,19.2-2.4,39.6-0.1,59c0.8,4.9,6.9,5.3,10.6,7.2c41.7,12.8,79.1,36.5,113,63.5
			c17.2-11.7,28-30.3,32.8-50.3c6.4-19.9,0.9-43.6,15.2-60.7c16.2-22.6,51.2-26.3,72.8-9.6c11.8,9,19.3,23.3,19.8,38.2
			c0.8,20.4,5.1,41.1,15.4,59c3.5,7,11.1,10.1,17.3,14.1c9.1,5.1,16.7,12.3,25.1,18.3c6.9,1.6,13.8-2.2,20.5-3.5
			c1.9-16.7,10.1-33.4,25.4-41.7c13.3-8.9,29.6-10.3,44.7-14.5c14.8-11.9,30.5-24,50.2-25.9c9.4-5.8,19.1-10.1,30.4-7.3
			c5.8-17.8,23.3-26.7,36.6-38.1c-6-3.9-13.7-6.1-17.8-12.3c-5.7-15.3-5.9-32.8,0.3-48c2.2-5.9,8.8-6.9,14-8.7
			c26.3-4.6,53.5-5,79.7,0.7c15.4,3.3,15.6,22.2,15.7,34.8c-1,10.3-1.4,25.6-13.5,29c-20.9,6.4-43.1,4-64.5,4.1
			c-11.4,7.3-21.8,16.3-32.5,24.5c-5.4,3.6-7.6,9.8-9.3,15.7c9.2,0.8,18.5,0.8,27.6,2.4c9.1,3.6,11.2,16.7,21.5,17.8
			c30.3,6.1,60.7,11.6,91,17.8c6.1,1.4,12.3,1.4,18.6,1.4c0.9,5.5-1.7,12.5,2.4,17c11.7,3.5,23.9,3.6,36,3.6
			c3.4,7.5,3,15.3-5.8,18.3c-10.6-5-21.7-12.7-33.9-10.3c-2.8,4-5.3,8.2-7.9,12.3c-29-7.7-58.8-11.1-88.1-17.3
			c-8.4-1.5-16.8-3.9-25.3-3.2c-7.5,2.9-12.4,9.9-18,15.3c-19.3-1.6-38.5-4.2-57.7-6.5c-3.2-9.3-6.6-18.8-12.6-26.6
			c-15.1,6.9-24.5,21.2-35.1,33.3c-17.3,17.8-37.9,32.3-61.1,41.4c3.6,22.1,7.8,44,11.8,66h456.2V0H0z"/>
	</g>
	<g>
		<path fill="#0C0E0F" d="M280.6,634.4l-3.9-3.9v-31.4l3.9-4h27.5l3.9,4v7.8h-7.8V603h-19.6v23.5h19.6v-3.9h7.8v7.8l-3.9,3.9H280.6z
			"/>
		<path fill="#0C0E0F" d="M340.7,634.4l-3.9-3.9v-31.4l3.9-4h27.5l3.9,4v31.4l-3.9,3.9H340.7z M364.2,626.5V603h-19.6v23.5H364.2z"
			/>
		<path fill="#0C0E0F" d="M424.9,634.4l-19.6-26.2v26.2h-7.8v-39.2h7.8l19.6,26.1v-26.1h7.8v39.2H424.9z"/>
		<path fill="#0C0E0F" d="M462,634.4l-3.9-3.9v-31.4l3.9-4h27.5l3.9,4v7.8h-7.8V603H466v23.5h19.6v-3.9h7.8v7.8l-3.9,3.9H462z"/>
		<path fill="#0C0E0F" d="M518.2,634.4v-39.2h33.3v7.8h-25.4v7.9h23.5v7.8h-23.5v7.8h25.4v7.8H518.2z"/>
		<path fill="#0C0E0F" d="M603.8,634.4v-3.9l-3.9-4l-3.9-3.9h-11.7v11.7h-7.8v-39.2h31.3l3.9,4v19.6l-3.9,3.9l3.9,3.9v7.8H603.8z
			 M603.8,614.8V603h-19.6v11.8H603.8z"/>
		<path fill="#0C0E0F" d="M649.1,634.4V603h-13.7v-7.8h35.2v7.8h-13.6v31.4H649.1z"/>
		<path fill="#0C0E0F" d="M740.5,634.4l-3.9-3.9v-31.4l3.9-4h27.5l3.9,4v7.8H764V603h-19.6v23.5H764v-3.9h7.8v7.8l-3.9,3.9H740.5z"
			/>
		<path fill="#0C0E0F" d="M804.5,595.1v31.4H830v7.8h-33.3v-39.2H804.5z"/>
		<path fill="#0C0E0F" d="M861.6,595.1v31.4h19.6v-31.4h7.8v35.4l-3.9,3.9h-27.5l-3.9-3.9v-35.4H861.6z"/>
		<path fill="#0C0E0F" d="M914.4,634.4v-39.2h31.3l3.9,4v11.8l-3.9,3.9l3.9,3.9v11.8l-3.9,3.9H914.4z M941.8,610.9V603h-19.6v7.9
			H941.8z M941.8,626.5v-7.8h-19.6v7.8H941.8z"/>
	</g>
</g>
</svg>
