<?xml version="1.0" encoding="utf-8"?>
<!-- Generator: Adobe Illustrator 19.0.0, SVG Export Plug-In . SVG Version: 6.00 Build 0)  -->
<svg version="1.1" xmlns="http://www.w3.org/2000/svg" xmlns:xlink="http://www.w3.org/1999/xlink" x="0px" y="0px"
	 viewBox="0 0 529.3 174.8" style="enable-background:new 0 0 529.3 174.8;" xml:space="preserve">
<style type="text/css">
	.st0{fill:#171D22;}
	.st1{display:none;fill:#171D22;}
	.st2{fill:#FFFFFF;}
	.st3{display:none;fill:#FFFFFF;}
	.st4{display:none;}
	.st5{display:inline;}
	.st6{font-family:'Philosopher-Italic';}
	.st7{font-size:47.8324px;}
</style>
<g id="Слой_4__x28_копия_x29_">
	<g id="XMLID_368_">
		<g id="XMLID_369_">
			<g id="XMLID_389_">
				<path id="XMLID_407_" class="st0" d="M263.8,141.3c-2.3,2-4.9,3.6-7.7,4.8c-12.4,5.3-26.2,4.5-39.3,4.4l-73.7-2.1
					c-1.7,1.1-3.6,1.9-5.1,3.4c-1.1,2.1-1.2,4.8,0,6.9c1.5,1.2,3.2,2.5,5.2,2.4c18.2,0.2,36.5-0.1,54.7-0.2c1.7,0,3.3-0.6,4.9-0.6
					c9.8,0,19.7-0.2,29.5-0.2c10.4-0.2,21.2-0.7,30.5-5.7c3.4-1.6,6.3-3.8,8.8-6.4C268.5,146.3,265.9,144.1,263.8,141.3z"/>
				<path id="XMLID_406_" class="st0" d="M271.8,9.5c5.2-3.7,11-6.6,17-8.7c5.9-1.1,12.5-1.5,17.8,1.7c5.2,2.9,9.7,6.9,14.2,11
					c3.5,2.9,6.9,5.9,10,9.4c-7.3-4.5-14.6-9.2-22.4-12.7c-3.8-1.5-8-3.2-12.2-1.9c-7.6,2.5-14,7.5-21.3,10.5
					c-2.8,1.2-5.9,1.5-8.8,0.5C265.3,15,268.8,11.9,271.8,9.5z"/>
				<path id="XMLID_405_" class="st0" d="M161.6,76.3c9.5-3.9,17.6-10.5,26.2-16.1c-1.5,3-4.1,5.3-6.2,7.9c-5.3,6.1-10.8,12.2-18,16
					c-7.8,2.7-16.2-1.6-21.2-7.5c-1.8-2.3,0.2-6.1,3.1-5.6C151,72.4,155.6,77.6,161.6,76.3z"/>
				<g id="XMLID_393_">
					<path id="XMLID_404_" class="st1" d="M52,151.1c1.8-1.2,3.9-2.6,5.5-4.3c-0.1-0.1-0.2-0.2-0.3-0.3c-3.1,0.5-6.4,0.8-9.9,0.9
						c1.2,1.5,2.4,3,3.7,4.3C51.3,151.5,51.7,151.3,52,151.1z"/>
					<path id="XMLID_403_" class="st0" d="M208.5,86.5c1.3,0.9,1.9,1.7,2.7,1.8c-2.9-4.7-7.9-10.2-9.6-15.6
						c-0.1-1.4,1.4-2.1,2.4-2.9c5.7-3.7,12.1-6.4,18.7-8c2.2-0.5,5.2-1,6.7,1.2c2.2,3.3,3.3,7.2,4.1,11c1.6,3.7,1.9,8,4.4,11.3
						c0.2,0.3,0.5,0.6,0.8,0.8c0.7,0,1.4,0,2,0c0.9,0,1.8,0.2,2.7,0.4c1.3-0.7,2.2-2,2.9-3.2c4.4-7,6.2-15.4,11-22.2
						c7-0.5,13.7,1.6,20.1,4.2c3.3,1.4,6.8,3,9.1,5.9c1.8,3.9-0.7,7.9-2.9,11c-2.5,3.2-5.2,6.2-8.3,8.9c0,0.1,0.1,0.1,0.1,0.2
						c2.7-1.6,5.2-3.5,7.4-5.7c3.1-3.3,6.4-7.2,6.6-12c0.3-3.3-2.3-5.8-4.6-7.7c-4.6-3.3-10-5.4-15.3-7.1c-3.9-0.9-7.9-2.5-12-2.1
						c-1.8,0.1-3,1.5-4.1,2.8c-2.8,3.9-4.5,8.5-6.6,12.9c-1.6,3.4-2.8,7.1-5.5,9.9c-1.7-2.5-2.4-5.5-3.3-8.3
						c-0.6-3.4-3.1-6.1-3.7-9.6c-0.5-2.7-2.4-5.4-5.1-6.4c-3.2-0.5-6.5-0.2-9.5,0.9c-6.7,2.4-13.2,5.7-18.8,10.1
						c-1.9,1.3-2,4-0.9,5.8c1.7,3.5,4.2,6.5,6.6,9.5L208.5,86.5z"/>
					<path id="XMLID_402_" class="st0" d="M299.7,85.3c1.1-2.1,2.3-4.1,3.7-6c12-16.3,29.6-28.1,48.9-34.1c2.5-0.9,4.2,1.4,6.1,2.7
						c2,1.7,4.5,2.9,6.7,4.3c10.8,8.8,21.7,17.5,32.6,26.2c-0.9,1.4-1.8,2.8-2.7,4.3c0.3,0,0.7,0,1,0c7.8,0,14,1.4,18.9,4.3
						c2.8-0.7,5.9-1.4,8.8-1.9c-0.3-0.3-0.6-0.6-1-0.8c-0.9-0.9-2.2-1.6-2.7-2.8c3.4-3.6,7.8-6.1,12.3-8.3c5.1-2,10.3-4,15.8-4.1
						l0-0.3c-10.7-0.4-21.2,3.6-29.4,10.4c-1,1.1-2.2-0.3-3.2-0.6c6.3-5.3,14.1-8.6,22.1-10.2c3.3-1,6.9-1.3,10-3
						c3.7-1.8,6.6-5.5,6.8-9.7c3.8-0.6,7.5,0.7,11.2,1.3c8.1,2.1,15.7,6,22.3,11.2c2.6,1.9,4.7,4.2,7.1,6.2
						c-3.2-3.5-6.3-7.2-10.2-10c-8.7-6.3-19-10.6-29.7-11.3c-0.1-0.8-0.2-1.5-0.3-2.3c-7.4-0.3-14.6,1.2-21.6,3.2
						c-10.2,3-19.9,8.2-27.8,15.4c-8.3-7-16.4-14.1-24.8-21c-4.5-3.5-8.5-7.6-13-11l0.5-0.4c3.1-0.5,6.3,0.3,9.5-0.2
						c3.7-5.1,4.6-11.8,3.5-17.8c-0.8-2-2.1-4.4-4.5-4.6c-5.7-0.7-10.8,2.5-15.5,5.1c-2.7,1.6-5.7,3.1-7.8,5.5c4-1,7.8-2.8,11.7-4
						c3.3-1.3,6.8-1.8,10.3-2.8c0.5,0.9,1.6,1.6,1.6,2.7c0.3,3.5,0.2,7-0.1,10.5c-0.2,1.1-0.3,2.6-1.6,3c-2.4,0.4-4.8,0.3-7.2,0.2
						c0,0.5,0.1,1,0.1,1.6c-0.2,0.1-0.7,0.3-0.9,0.4c-7.5-5.6-14.6-12-23.2-15.9c-3.1-1.4-7.4-1.7-9.6,1.3c-1,2.1-0.1,4.5,1.3,6.2
						c2.6,3.2,5.6,6,8.6,8.7c1.8,1.6,4.1,2.8,5.1,5.1c-4,1.1-7.7,2.9-11.4,4.6c-11.3,5.1-22.2,11.5-31.2,20.1
						c-6.1,5.6-10.7,12.6-15,19.6c0,0,0,0,0,0C294.3,85.8,296.9,85.4,299.7,85.3z"/>
					<path id="XMLID_401_" class="st0" d="M459.4,164.2c9.1-1.7,17.5-6.3,24.1-12.8c-1,0-1.9,0-2.9,0c-0.5,0-0.9,0-1.4,0
						c-4.9,3.8-10.6,6.7-16.6,8.3c-5.6,1.6-11.4,1.3-17.2,1.1c-6.3-0.6-12.3-2.7-17.7-5.9c-0.8,1.2-1.7,2.4-2.8,3.5
						c0.6,0.4,1.2,0.7,1.8,1C436.7,164.7,448.4,166.8,459.4,164.2z"/>
					<path id="XMLID_400_" class="st1" d="M263.3,140.5c-1.6,1.1-3.3,2.1-5.1,2.8c-8.2,3.5-17,4.3-25.8,4.4
						c-1.7,1.4-3.9,2.1-5.8,2.1c-7.2,0-12.6,0.5-17,1c-3.1,0.3-5.7,0.6-8.2,0.6c-2.6,0-5.1-1.6-6.6-3.7c-0.9,0-1.9,0-2.8,0
						c-6.9,2.2-15.2,3.8-24.3,3.8c-7.8,0-12.7-2.2-15.8-4.9c-3.1,1.9-7.3,3.6-12.5,4.4c-0.4,1.7-0.2,3.5,0.7,5
						c1.5,1.2,3.2,2.5,5.2,2.4c18.2,0.2,36.5-0.1,54.7-0.2c1.7,0,3.3-0.6,4.9-0.6c9.8,0,19.7-0.2,29.5-0.2
						c10.4-0.2,21.2-0.7,30.5-5.7c2.2-1.1,4.3-2.4,6.1-3.9C267.8,145.8,265.2,143.4,263.3,140.5z"/>
					<path id="XMLID_399_" class="st1" d="M53.7,115.6c-0.4,5.8,0.8,11.6,3.3,16.9c1.2,0.4,2.6,0.8,4.1,1c-2.8-4.8-4.2-10.4-4.2-16
						c-0.3-11.3,6-22.3,15.6-28.1C84,82,99.8,83,110.4,91.5c2.2,1.9,4.5,3.9,6.2,6.4c0.4-0.4,0.7-0.7,1.1-1.1
						c-4.5-6.5-11.3-11.2-18.8-13.5c-4.5-1.4-9.3-1.1-14-1C68.1,83.6,54,98.9,53.7,115.6z"/>
					<path id="XMLID_398_" class="st0" d="M495.5,150.4c-11.1,12.9-27.9,21-45.1,20.5c-10.6,0.2-20.9-3.2-30-8.5
						c-1.2,0.9-2.5,1.7-4,2.4c14,9.1,31.9,12.4,48.1,8c13.6-3.3,25.7-11.7,33.9-22.9C497.5,150.1,496.5,150.2,495.5,150.4z"/>
					<path id="XMLID_397_" class="st1" d="M77.8,78.4c-8,1.8-20.8,10.2-26.1,20.4c-4,7.2-5.7,15.7-5,23.9
						c-2.3-5.2-2.9-11.2-2.9-15.7c0-9,1.4-16.7,4.1-23.2c5.2-6.5,15.6-11.9,20.2-14.2c5.3-2.8,12.4-3.6,12.4-3.6s13.3,3.2,19.8,11.7
						C93.9,76.5,86.8,75.4,77.8,78.4z"/>
					<path id="XMLID_396_" class="st1" d="M117.8,148.2c-7.6,7.6-18.1,12.2-28.9,12.2c-4.7,2.5-10.8,4-18.5,4.5
						c13.9,5.6,30,5.5,43.7-0.5c7-2.9,13.2-7.5,18.4-13C126.8,151.4,121.9,150.2,117.8,148.2z"/>
					<path id="XMLID_395_" class="st0" d="M467,153.1c1.5-0.6,2.9-1.4,4.2-2.2c-2.6-0.3-5.2-0.7-7.7-1.3c-4.4,1.7-9.1,2.6-13.8,2.8
						c-5.7-0.1-11.4-1.6-16.7-3.7c0-0.7,0-1.4,0-2.1c-0.6,0.2-1.2,0.4-1.9,0.6l-0.3,1.1c-0.3,1-0.7,2-1.1,3c1.4,0.8,2.9,1.5,4.4,2.1
						C444.5,157.8,456.7,157.7,467,153.1z"/>
					<path id="XMLID_394_" class="st0" d="M447.6,96.1c0-1.7-0.4-3.3-1-4.7c0-0.1,0-0.2,0-0.3c0,0-0.1,0-0.1,0c-0.5-1-1.2-2-2-2.9
						c0.8-0.1,1.6-0.2,2.4-0.3c0.3-4.6,0.6-9.2,1.4-13.7c-3.9-0.2-7.6,0.7-11.3,1.9c-0.9,0.5-0.5,1.6-0.2,2.4
						c1.1,2.3,2.3,4.6,3.4,6.9c-2.1-0.9-4.5-1.4-7.1-1.4c-0.8,0-1.8,0.1-2.9,0.1c-1.5-1.1-3-2.1-4.4-3.2c6.6-5.2,14.8-8.5,23.2-8.6
						c10.6-0.5,21.4,3.3,29.3,10.5c1.2,1,2.3,2.1,3.3,3.3c-1.3,0.2-2.7,0.5-3.9,0.7c-4.9-5.3-11.2-9.2-18.2-11
						c-1.2-0.4-1.7,1-2.3,1.8c-2,3.6-4,7.3-4.5,11.4c3.1,0.7,6.1,2.1,8.6,4c-0.4,0.2-0.8,0.5-1.2,0.7c-2.5-1.4-5.2-2.4-8.1-2.7
						c-0.8,2.8-0.4,1.5-1.9,5.2L447.6,96.1z"/>
				</g>
				<path id="XMLID_392_" d="M310.7,85.8c0.5-0.9,1.1-1.8,1.6-2.7c4.2-7.3,10.6-12.8,17-18c4.5-3.8,9.3-7,14-10.5
					c-5.4,1.4-10.2,4.6-15,7.4c-8.8,5.5-17.1,12.5-21.6,21.9c-0.3,0.5-0.5,0.9-0.8,1.4C307.6,85.3,309.2,85.5,310.7,85.8z"/>
				<path id="XMLID_391_" class="st0" d="M171,85.1c2.9,0,7.8,0.3,12.5,0.6c1.1,0.1,2.1,0.1,3,0.2c3.4-4.2,6.7-8.5,9.8-12.9
					c3.8-4.6,6.9-10.1,12.2-13.1c6.8-3.8,14.7-5.2,22.5-5.9c3-0.8,6.2-0.6,9.3-0.8c11.7-0.5,23.4,0,35.1,0.3
					c7.6,1.3,15.4,0.7,23.1,0.7c7-0.9,14.6-2,20-7c3.9-3.8,5.1-9.9,3.6-15c-3-7.1-11.2-9.4-18.1-10.4c-5.2-0.2-10.5-0.5-15.6,0.6
					c-22,4-43.5,10.2-64.7,17.2c-7.6,2.9-15.9,5-21.8,10.9c-6.6,6.5-11.9,14.2-18.2,20.9c-4.9,5.5-10.5,10.5-17,14.1
					C167.9,85.3,169.4,85.1,171,85.1z"/>
				<path id="XMLID_390_" class="st1" d="M86.1,64.2c8.2,3,18.1,14.1,18.1,14.1s2.6,2.6,8.4,9.1c5.8,6.5,4.5,4.9,6.2,8
					c6.7-5.4,16.7-9.7,27.6-10.3c-0.1-0.1-0.2-0.1-0.2-0.2c-8.6-6.5-14.8-15.6-23.3-22.3c-6.4-4.8-13.8-9-21.6-10.7
					c-6.3-0.8-13.2,0.3-19.5,1.4c-4.3,1.2-8.9,3.3-11.1,7.4c-1.5,2.9,3.1-2.4,4.9,0.6C76.6,64.2,83.4,63.3,86.1,64.2z"/>
			</g>
		</g>
	</g>
	<g id="XMLID_328_">
		<g id="XMLID_329_">
			<g id="XMLID_349_">
				<path id="XMLID_367_" class="st2" d="M263.8,141.3c-2.3,2-4.9,3.6-7.7,4.8c-12.4,5.3-26.2,4.5-39.3,4.4l-73.7-2.1
					c-1.7,1.1-3.6,1.9-5.1,3.4c-1.1,2.1-1.2,4.8,0,6.9c1.5,1.2,3.2,2.5,5.2,2.4c18.2,0.2,36.5-0.1,54.7-0.2c1.7,0,3.3-0.6,4.9-0.6
					c9.8,0,19.7-0.2,29.5-0.2c10.4-0.2,21.2-0.7,30.5-5.7c3.4-1.6,6.3-3.8,8.8-6.4C268.5,146.3,265.9,144.1,263.8,141.3z"/>
				<path id="XMLID_366_" class="st2" d="M271.8,9.5c5.2-3.7,11-6.6,17-8.7c5.9-1.1,12.5-1.5,17.8,1.7c5.2,2.9,9.7,6.9,14.2,11
					c3.5,2.9,6.9,5.9,10,9.4c-7.3-4.5-14.6-9.2-22.4-12.7c-3.8-1.5-8-3.2-12.2-1.9c-7.6,2.5-14,7.5-21.3,10.5
					c-2.8,1.2-5.9,1.5-8.8,0.5C265.3,15,268.8,11.9,271.8,9.5z"/>
				<path id="XMLID_365_" class="st2" d="M161.6,76.3c9.5-3.9,17.6-10.5,26.2-16.1c-1.5,3-4.1,5.3-6.2,7.9c-5.3,6.1-10.8,12.2-18,16
					c-7.8,2.7-16.2-1.6-21.2-7.5c-1.8-2.3,0.2-6.1,3.1-5.6C151,72.4,155.6,77.6,161.6,76.3z"/>
				<g id="XMLID_353_">
					<path id="XMLID_364_" class="st3" d="M52,151.1c1.8-1.2,3.9-2.6,5.5-4.3c-0.1-0.1-0.2-0.2-0.3-0.3c-3.1,0.5-6.4,0.8-9.9,0.9
						c1.2,1.5,2.4,3,3.7,4.3C51.3,151.5,51.7,151.3,52,151.1z"/>
					<path id="XMLID_363_" class="st2" d="M208.5,86.5c1.3,0.9,1.9,1.7,2.7,1.8c-2.9-4.7-7.9-10.2-9.6-15.6
						c-0.1-1.4,1.4-2.1,2.4-2.9c5.7-3.7,12.1-6.4,18.7-8c2.2-0.5,5.2-1,6.7,1.2c2.2,3.3,3.3,7.2,4.1,11c1.6,3.7,1.9,8,4.4,11.3
						c0.2,0.3,0.5,0.6,0.8,0.8c0.7,0,1.4,0,2,0c0.9,0,1.8,0.2,2.7,0.4c1.3-0.7,2.2-2,2.9-3.2c4.4-7,6.2-15.4,11-22.2
						c7-0.5,13.7,1.6,20.1,4.2c3.3,1.4,6.8,3,9.1,5.9c1.8,3.9-0.7,7.9-2.9,11c-2.5,3.2-5.2,6.2-8.3,8.9c0,0.1,0.1,0.1,0.1,0.2
						c2.7-1.6,5.2-3.5,7.4-5.7c3.1-3.3,6.4-7.2,6.6-12c0.3-3.3-2.3-5.8-4.6-7.7c-4.6-3.3-10-5.4-15.3-7.1c-3.9-0.9-7.9-2.5-12-2.1
						c-1.8,0.1-3,1.5-4.1,2.8c-2.8,3.9-4.5,8.5-6.6,12.9c-1.6,3.4-2.8,7.1-5.5,9.9c-1.7-2.5-2.4-5.5-3.3-8.3
						c-0.6-3.4-3.1-6.1-3.7-9.6c-0.5-2.7-2.4-5.4-5.1-6.4c-3.2-0.5-6.5-0.2-9.5,0.9c-6.7,2.4-13.2,5.7-18.8,10.1
						c-1.9,1.3-2,4-0.9,5.8c1.7,3.5,4.2,6.5,6.6,9.5L208.5,86.5z"/>
					<path id="XMLID_362_" class="st2" d="M299.7,85.3c1.1-2.1,2.3-4.1,3.7-6c12-16.3,29.6-28.1,48.9-34.1c2.5-0.9,4.2,1.4,6.1,2.7
						c2,1.7,4.5,2.9,6.7,4.3c10.8,8.8,21.7,17.5,32.6,26.2c-0.9,1.4-1.8,2.8-2.7,4.3c0.3,0,0.7,0,1,0c7.8,0,14,1.4,18.9,4.3
						c2.8-0.7,5.9-1.4,8.8-1.9c-0.3-0.3-0.6-0.6-1-0.8c-0.9-0.9-2.2-1.6-2.7-2.8c3.4-3.6,7.8-6.1,12.3-8.3c5.1-2,10.3-4,15.8-4.1
						l0-0.3c-10.7-0.4-21.2,3.6-29.4,10.4c-1,1.1-2.2-0.3-3.2-0.6c6.3-5.3,14.1-8.6,22.1-10.2c3.3-1,6.9-1.3,10-3
						c3.7-1.8,6.6-5.5,6.8-9.7c3.8-0.6,7.5,0.7,11.2,1.3c8.1,2.1,15.7,6,22.3,11.2c2.6,1.9,4.7,4.2,7.1,6.2
						c-3.2-3.5-6.3-7.2-10.2-10c-8.7-6.3-19-10.6-29.7-11.3c-0.1-0.8-0.2-1.5-0.3-2.3c-7.4-0.3-14.6,1.2-21.6,3.2
						c-10.2,3-19.9,8.2-27.8,15.4c-8.3-7-16.4-14.1-24.8-21c-4.5-3.5-8.5-7.6-13-11l0.5-0.4c3.1-0.5,6.3,0.3,9.5-0.2
						c3.7-5.1,4.6-11.8,3.5-17.8c-0.8-2-2.1-4.4-4.5-4.6c-5.7-0.7-10.8,2.5-15.5,5.1c-2.7,1.6-5.7,3.1-7.8,5.5c4-1,7.8-2.8,11.7-4
						c3.3-1.3,6.8-1.8,10.3-2.8c0.5,0.9,1.6,1.6,1.6,2.7c0.3,3.5,0.2,7-0.1,10.5c-0.2,1.1-0.3,2.6-1.6,3c-2.4,0.4-4.8,0.3-7.2,0.2
						c0,0.5,0.1,1,0.1,1.6c-0.2,0.1-0.7,0.3-0.9,0.4c-7.5-5.6-14.6-12-23.2-15.9c-3.1-1.4-7.4-1.7-9.6,1.3c-1,2.1-0.1,4.5,1.3,6.2
						c2.6,3.2,5.6,6,8.6,8.7c1.8,1.6,4.1,2.8,5.1,5.1c-4,1.1-7.7,2.9-11.4,4.6c-11.3,5.1-22.2,11.5-31.2,20.1
						c-6.1,5.6-10.7,12.6-15,19.6c0,0,0,0,0,0C294.3,85.8,296.9,85.4,299.7,85.3z"/>
					<path id="XMLID_361_" class="st2" d="M459.4,164.2c9.1-1.7,17.5-6.3,24.1-12.8c-1,0-1.9,0-2.9,0c-0.5,0-0.9,0-1.4,0
						c-4.9,3.8-10.6,6.7-16.6,8.3c-5.6,1.6-11.4,1.3-17.2,1.1c-6.3-0.6-12.3-2.7-17.7-5.9c-0.8,1.2-1.7,2.4-2.8,3.5
						c0.6,0.4,1.2,0.7,1.8,1C436.7,164.7,448.4,166.8,459.4,164.2z"/>
					<path id="XMLID_360_" class="st3" d="M263.3,140.5c-1.6,1.1-3.3,2.1-5.1,2.8c-8.2,3.5-17,4.3-25.8,4.4
						c-1.7,1.4-3.9,2.1-5.8,2.1c-7.2,0-12.6,0.5-17,1c-3.1,0.3-5.7,0.6-8.2,0.6c-2.6,0-5.1-1.6-6.6-3.7c-0.9,0-1.9,0-2.8,0
						c-6.9,2.2-15.2,3.8-24.3,3.8c-7.8,0-12.7-2.2-15.8-4.9c-3.1,1.9-7.3,3.6-12.5,4.4c-0.4,1.7-0.2,3.5,0.7,5
						c1.5,1.2,3.2,2.5,5.2,2.4c18.2,0.2,36.5-0.1,54.7-0.2c1.7,0,3.3-0.6,4.9-0.6c9.8,0,19.7-0.2,29.5-0.2
						c10.4-0.2,21.2-0.7,30.5-5.7c2.2-1.1,4.3-2.4,6.1-3.9C267.8,145.8,265.2,143.4,263.3,140.5z"/>
					<path id="XMLID_359_" class="st3" d="M53.7,115.6c-0.4,5.8,0.8,11.6,3.3,16.9c1.2,0.4,2.6,0.8,4.1,1c-2.8-4.8-4.2-10.4-4.2-16
						c-0.3-11.3,6-22.3,15.6-28.1C84,82,99.8,83,110.4,91.5c2.2,1.9,4.5,3.9,6.2,6.4c0.4-0.4,0.7-0.7,1.1-1.1
						c-4.5-6.5-11.3-11.2-18.8-13.5c-4.5-1.4-9.3-1.1-14-1C68.1,83.6,54,98.9,53.7,115.6z"/>
					<path id="XMLID_358_" class="st2" d="M495.5,150.4c-11.1,12.9-27.9,21-45.1,20.5c-10.6,0.2-20.9-3.2-30-8.5
						c-1.2,0.9-2.5,1.7-4,2.4c14,9.1,31.9,12.4,48.1,8c13.6-3.3,25.7-11.7,33.9-22.9C497.5,150.1,496.5,150.2,495.5,150.4z"/>
					<path id="XMLID_357_" class="st3" d="M77.8,78.4c-8,1.8-20.8,10.2-26.1,20.4c-4,7.2-5.7,15.7-5,23.9
						c-2.3-5.2-2.9-11.2-2.9-15.7c0-9,1.4-16.7,4.1-23.2c5.2-6.5,15.6-11.9,20.2-14.2c5.3-2.8,12.4-3.6,12.4-3.6s13.3,3.2,19.8,11.7
						C93.9,76.5,86.8,75.4,77.8,78.4z"/>
					<path id="XMLID_356_" class="st3" d="M117.8,148.2c-7.6,7.6-18.1,12.2-28.9,12.2c-4.7,2.5-10.8,4-18.5,4.5
						c13.9,5.6,30,5.5,43.7-0.5c7-2.9,13.2-7.5,18.4-13C126.8,151.4,121.9,150.2,117.8,148.2z"/>
					<path id="XMLID_355_" class="st2" d="M467,153.1c1.5-0.6,2.9-1.4,4.2-2.2c-2.6-0.3-5.2-0.7-7.7-1.3c-4.4,1.7-9.1,2.6-13.8,2.8
						c-5.7-0.1-11.4-1.6-16.7-3.7c0-0.7,0-1.4,0-2.1c-0.6,0.2-1.2,0.4-1.9,0.6l-0.3,1.1c-0.3,1-0.7,2-1.1,3c1.4,0.8,2.9,1.5,4.4,2.1
						C444.5,157.8,456.7,157.7,467,153.1z"/>
					<path id="XMLID_354_" class="st2" d="M447.6,96.1c0-1.7-0.4-3.3-1-4.7c0-0.1,0-0.2,0-0.3c0,0-0.1,0-0.1,0c-0.5-1-1.2-2-2-2.9
						c0.8-0.1,1.6-0.2,2.4-0.3c0.3-4.6,0.6-9.2,1.4-13.7c-3.9-0.2-7.6,0.7-11.3,1.9c-0.9,0.5-0.5,1.6-0.2,2.4
						c1.1,2.3,2.3,4.6,3.4,6.9c-2.1-0.9-4.5-1.4-7.1-1.4c-0.8,0-1.8,0.1-2.9,0.1c-1.5-1.1-3-2.1-4.4-3.2c6.6-5.2,14.8-8.5,23.2-8.6
						c10.6-0.5,21.4,3.3,29.3,10.5c1.2,1,2.3,2.1,3.3,3.3c-1.3,0.2-2.7,0.5-3.9,0.7c-4.9-5.3-11.2-9.2-18.2-11
						c-1.2-0.4-1.7,1-2.3,1.8c-2,3.6-4,7.3-4.5,11.4c3.1,0.7,6.1,2.1,8.6,4c-0.4,0.2-0.8,0.5-1.2,0.7c-2.5-1.4-5.2-2.4-8.1-2.7
						c-0.8,2.8-0.4,1.5-1.9,5.2L447.6,96.1z"/>
				</g>
				<path id="XMLID_352_" class="st2" d="M310.7,85.8c0.5-0.9,1.1-1.8,1.6-2.7c4.2-7.3,10.6-12.8,17-18c4.5-3.8,9.3-7,14-10.5
					c-5.4,1.4-10.2,4.6-15,7.4c-8.8,5.5-17.1,12.5-21.6,21.9c-0.3,0.5-0.5,0.9-0.8,1.4C307.6,85.3,309.2,85.5,310.7,85.8z"/>
				<path id="XMLID_351_" class="st2" d="M171,85.1c2.9,0,7.8,0.3,12.5,0.6c1.1,0.1,2.1,0.1,3,0.2c3.4-4.2,6.7-8.5,9.8-12.9
					c3.8-4.6,6.9-10.1,12.2-13.1c6.8-3.8,14.7-5.2,22.5-5.9c3-0.8,6.2-0.6,9.3-0.8c11.7-0.5,23.4,0,35.1,0.3
					c7.6,1.3,15.4,0.7,23.1,0.7c7-0.9,14.6-2,20-7c3.9-3.8,5.1-9.9,3.6-15c-3-7.1-11.2-9.4-18.1-10.4c-5.2-0.2-10.5-0.5-15.6,0.6
					c-22,4-43.5,10.2-64.7,17.2c-7.6,2.9-15.9,5-21.8,10.9c-6.6,6.5-11.9,14.2-18.2,20.9c-4.9,5.5-10.5,10.5-17,14.1
					C167.9,85.3,169.4,85.1,171,85.1z"/>
				<path id="XMLID_350_" class="st3" d="M86.1,64.2c8.2,3,18.1,14.1,18.1,14.1s2.6,2.6,8.4,9.1c5.8,6.5,4.5,4.9,6.2,8
					c6.7-5.4,16.7-9.7,27.6-10.3c-0.1-0.1-0.2-0.1-0.2-0.2c-8.6-6.5-14.8-15.6-23.3-22.3c-6.4-4.8-13.8-9-21.6-10.7
					c-6.3-0.8-13.2,0.3-19.5,1.4c-4.3,1.2-8.9,3.3-11.1,7.4c-1.5,2.9,3.1-2.4,4.9,0.6C76.6,64.2,83.4,63.3,86.1,64.2z"/>
			</g>
			<g id="XMLID_330_">
				<path id="XMLID_348_" class="st2" d="M263.8,141.3c-2.3,2-4.9,3.6-7.7,4.8c-12.4,5.3-26.2,4.5-39.3,4.4l-73.7-2.1
					c-1.7,1.1-3.6,1.9-5.1,3.4c-1.1,2.1-1.2,4.8,0,6.9c1.5,1.2,3.2,2.5,5.2,2.4c18.2,0.2,36.5-0.1,54.7-0.2c1.7,0,3.3-0.6,4.9-0.6
					c9.8,0,19.7-0.2,29.5-0.2c10.4-0.2,21.2-0.7,30.5-5.7c3.4-1.6,6.3-3.8,8.8-6.4C268.5,146.3,265.9,144.1,263.8,141.3z"/>
				<path id="XMLID_347_" class="st2" d="M271.8,9.5c5.2-3.7,11-6.6,17-8.7c5.9-1.1,12.5-1.5,17.8,1.7c5.2,2.9,9.7,6.9,14.2,11
					c3.5,2.9,6.9,5.9,10,9.4c-7.3-4.5-14.6-9.2-22.4-12.7c-3.8-1.5-8-3.2-12.2-1.9c-7.6,2.5-14,7.5-21.3,10.5
					c-2.8,1.2-5.9,1.5-8.8,0.5C265.3,15,268.8,11.9,271.8,9.5z"/>
				<path id="XMLID_346_" class="st2" d="M161.6,76.3c9.5-3.9,17.6-10.5,26.2-16.1c-1.5,3-4.1,5.3-6.2,7.9c-5.3,6.1-10.8,12.2-18,16
					c-7.8,2.7-16.2-1.6-21.2-7.5c-1.8-2.3,0.2-6.1,3.1-5.6C151,72.4,155.6,77.6,161.6,76.3z"/>
				<g id="XMLID_334_">
					<path id="XMLID_345_" class="st3" d="M52,151.1c1.8-1.2,3.9-2.6,5.5-4.3c-0.1-0.1-0.2-0.2-0.3-0.3c-3.1,0.5-6.4,0.8-9.9,0.9
						c1.2,1.5,2.4,3,3.7,4.3C51.3,151.5,51.7,151.3,52,151.1z"/>
					<path id="XMLID_344_" class="st2" d="M208.5,86.5c1.3,0.9,1.9,1.7,2.7,1.8c-2.9-4.7-7.9-10.2-9.6-15.6
						c-0.1-1.4,1.4-2.1,2.4-2.9c5.7-3.7,12.1-6.4,18.7-8c2.2-0.5,5.2-1,6.7,1.2c2.2,3.3,3.3,7.2,4.1,11c1.6,3.7,1.9,8,4.4,11.3
						c0.2,0.3,0.5,0.6,0.8,0.8c0.7,0,1.4,0,2,0c0.9,0,1.8,0.2,2.7,0.4c1.3-0.7,2.2-2,2.9-3.2c4.4-7,6.2-15.4,11-22.2
						c7-0.5,13.7,1.6,20.1,4.2c3.3,1.4,6.8,3,9.1,5.9c1.8,3.9-0.7,7.9-2.9,11c-2.5,3.2-5.2,6.2-8.3,8.9c0,0.1,0.1,0.1,0.1,0.2
						c2.7-1.6,5.2-3.5,7.4-5.7c3.1-3.3,6.4-7.2,6.6-12c0.3-3.3-2.3-5.8-4.6-7.7c-4.6-3.3-10-5.4-15.3-7.1c-3.9-0.9-7.9-2.5-12-2.1
						c-1.8,0.1-3,1.5-4.1,2.8c-2.8,3.9-4.5,8.5-6.6,12.9c-1.6,3.4-2.8,7.1-5.5,9.9c-1.7-2.5-2.4-5.5-3.3-8.3
						c-0.6-3.4-3.1-6.1-3.7-9.6c-0.5-2.7-2.4-5.4-5.1-6.4c-3.2-0.5-6.5-0.2-9.5,0.9c-6.7,2.4-13.2,5.7-18.8,10.1
						c-1.9,1.3-2,4-0.9,5.8c1.7,3.5,4.2,6.5,6.6,9.5L208.5,86.5z"/>
					<path id="XMLID_343_" class="st2" d="M299.7,85.3c1.1-2.1,2.3-4.1,3.7-6c12-16.3,29.6-28.1,48.9-34.1c2.5-0.9,4.2,1.4,6.1,2.7
						c2,1.7,4.5,2.9,6.7,4.3c10.8,8.8,21.7,17.5,32.6,26.2c-0.9,1.4-1.8,2.8-2.7,4.3c0.3,0,0.7,0,1,0c7.8,0,14,1.4,18.9,4.3
						c2.8-0.7,5.9-1.4,8.8-1.9c-0.3-0.3-0.6-0.6-1-0.8c-0.9-0.9-2.2-1.6-2.7-2.8c3.4-3.6,7.8-6.1,12.3-8.3c5.1-2,10.3-4,15.8-4.1
						l0-0.3c-10.7-0.4-21.2,3.6-29.4,10.4c-1,1.1-2.2-0.3-3.2-0.6c6.3-5.3,14.1-8.6,22.1-10.2c3.3-1,6.9-1.3,10-3
						c3.7-1.8,6.6-5.5,6.8-9.7c3.8-0.6,7.5,0.7,11.2,1.3c8.1,2.1,15.7,6,22.3,11.2c2.6,1.9,4.7,4.2,7.1,6.2
						c-3.2-3.5-6.3-7.2-10.2-10c-8.7-6.3-19-10.6-29.7-11.3c-0.1-0.8-0.2-1.5-0.3-2.3c-7.4-0.3-14.6,1.2-21.6,3.2
						c-10.2,3-19.9,8.2-27.8,15.4c-8.3-7-16.4-14.1-24.8-21c-4.5-3.5-8.5-7.6-13-11l0.5-0.4c3.1-0.5,6.3,0.3,9.5-0.2
						c3.7-5.1,4.6-11.8,3.5-17.8c-0.8-2-2.1-4.4-4.5-4.6c-5.7-0.7-10.8,2.5-15.5,5.1c-2.7,1.6-5.7,3.1-7.8,5.5c4-1,7.8-2.8,11.7-4
						c3.3-1.3,6.8-1.8,10.3-2.8c0.5,0.9,1.6,1.6,1.6,2.7c0.3,3.5,0.2,7-0.1,10.5c-0.2,1.1-0.3,2.6-1.6,3c-2.4,0.4-4.8,0.3-7.2,0.2
						c0,0.5,0.1,1,0.1,1.6c-0.2,0.1-0.7,0.3-0.9,0.4c-7.5-5.6-14.6-12-23.2-15.9c-3.1-1.4-7.4-1.7-9.6,1.3c-1,2.1-0.1,4.5,1.3,6.2
						c2.6,3.2,5.6,6,8.6,8.7c1.8,1.6,4.1,2.8,5.1,5.1c-4,1.1-7.7,2.9-11.4,4.6c-11.3,5.1-22.2,11.5-31.2,20.1
						c-6.1,5.6-10.7,12.6-15,19.6c0,0,0,0,0,0C294.3,85.8,296.9,85.4,299.7,85.3z"/>
					<path id="XMLID_342_" class="st2" d="M459.4,164.2c9.1-1.7,17.5-6.3,24.1-12.8c-1,0-1.9,0-2.9,0c-0.5,0-0.9,0-1.4,0
						c-4.9,3.8-10.6,6.7-16.6,8.3c-5.6,1.6-11.4,1.3-17.2,1.1c-6.3-0.6-12.3-2.7-17.7-5.9c-0.8,1.2-1.7,2.4-2.8,3.5
						c0.6,0.4,1.2,0.7,1.8,1C436.7,164.7,448.4,166.8,459.4,164.2z"/>
					<path id="XMLID_341_" class="st3" d="M263.3,140.5c-1.6,1.1-3.3,2.1-5.1,2.8c-8.2,3.5-17,4.3-25.8,4.4
						c-1.7,1.4-3.9,2.1-5.8,2.1c-7.2,0-12.6,0.5-17,1c-3.1,0.3-5.7,0.6-8.2,0.6c-2.6,0-5.1-1.6-6.6-3.7c-0.9,0-1.9,0-2.8,0
						c-6.9,2.2-15.2,3.8-24.3,3.8c-7.8,0-12.7-2.2-15.8-4.9c-3.1,1.9-7.3,3.6-12.5,4.4c-0.4,1.7-0.2,3.5,0.7,5
						c1.5,1.2,3.2,2.5,5.2,2.4c18.2,0.2,36.5-0.1,54.7-0.2c1.7,0,3.3-0.6,4.9-0.6c9.8,0,19.7-0.2,29.5-0.2
						c10.4-0.2,21.2-0.7,30.5-5.7c2.2-1.1,4.3-2.4,6.1-3.9C267.8,145.8,265.2,143.4,263.3,140.5z"/>
					<path id="XMLID_340_" class="st3" d="M53.7,115.6c-0.4,5.8,0.8,11.6,3.3,16.9c1.2,0.4,2.6,0.8,4.1,1c-2.8-4.8-4.2-10.4-4.2-16
						c-0.3-11.3,6-22.3,15.6-28.1C84,82,99.8,83,110.4,91.5c2.2,1.9,4.5,3.9,6.2,6.4c0.4-0.4,0.7-0.7,1.1-1.1
						c-4.5-6.5-11.3-11.2-18.8-13.5c-4.5-1.4-9.3-1.1-14-1C68.1,83.6,54,98.9,53.7,115.6z"/>
					<path id="XMLID_339_" class="st2" d="M495.5,150.4c-11.1,12.9-27.9,21-45.1,20.5c-10.6,0.2-20.9-3.2-30-8.5
						c-1.2,0.9-2.5,1.7-4,2.4c14,9.1,31.9,12.4,48.1,8c13.6-3.3,25.7-11.7,33.9-22.9C497.5,150.1,496.5,150.2,495.5,150.4z"/>
					<path id="XMLID_338_" class="st3" d="M77.8,78.4c-8,1.8-20.8,10.2-26.1,20.4c-4,7.2-5.7,15.7-5,23.9
						c-2.3-5.2-2.9-11.2-2.9-15.7c0-9,1.4-16.7,4.1-23.2c5.2-6.5,15.6-11.9,20.2-14.2c5.3-2.8,12.4-3.6,12.4-3.6s13.3,3.2,19.8,11.7
						C93.9,76.5,86.8,75.4,77.8,78.4z"/>
					<path id="XMLID_337_" class="st3" d="M117.8,148.2c-7.6,7.6-18.1,12.2-28.9,12.2c-4.7,2.5-10.8,4-18.5,4.5
						c13.9,5.6,30,5.5,43.7-0.5c7-2.9,13.2-7.5,18.4-13C126.8,151.4,121.9,150.2,117.8,148.2z"/>
					<path id="XMLID_336_" class="st2" d="M467,153.1c1.5-0.6,2.9-1.4,4.2-2.2c-2.6-0.3-5.2-0.7-7.7-1.3c-4.4,1.7-9.1,2.6-13.8,2.8
						c-5.7-0.1-11.4-1.6-16.7-3.7c0-0.7,0-1.4,0-2.1c-0.6,0.2-1.2,0.4-1.9,0.6l-0.3,1.1c-0.3,1-0.7,2-1.1,3c1.4,0.8,2.9,1.5,4.4,2.1
						C444.5,157.8,456.7,157.7,467,153.1z"/>
					<path id="XMLID_335_" class="st2" d="M447.6,96.1c0-1.7-0.4-3.3-1-4.7c0-0.1,0-0.2,0-0.3c0,0-0.1,0-0.1,0c-0.5-1-1.2-2-2-2.9
						c0.8-0.1,1.6-0.2,2.4-0.3c0.3-4.6,0.6-9.2,1.4-13.7c-3.9-0.2-7.6,0.7-11.3,1.9c-0.9,0.5-0.5,1.6-0.2,2.4
						c1.1,2.3,2.3,4.6,3.4,6.9c-2.1-0.9-4.5-1.4-7.1-1.4c-0.8,0-1.8,0.1-2.9,0.1c-1.5-1.1-3-2.1-4.4-3.2c6.6-5.2,14.8-8.5,23.2-8.6
						c10.6-0.5,21.4,3.3,29.3,10.5c1.2,1,2.3,2.1,3.3,3.3c-1.3,0.2-2.7,0.5-3.9,0.7c-4.9-5.3-11.2-9.2-18.2-11
						c-1.2-0.4-1.7,1-2.3,1.8c-2,3.6-4,7.3-4.5,11.4c3.1,0.7,6.1,2.1,8.6,4c-0.4,0.2-0.8,0.5-1.2,0.7c-2.5-1.4-5.2-2.4-8.1-2.7
						c-0.8,2.8-0.4,1.5-1.9,5.2L447.6,96.1z"/>
				</g>
				<path id="XMLID_333_" class="st2" d="M310.7,85.8c0.5-0.9,1.1-1.8,1.6-2.7c4.2-7.3,10.6-12.8,17-18c4.5-3.8,9.3-7,14-10.5
					c-5.4,1.4-10.2,4.6-15,7.4c-8.8,5.5-17.1,12.5-21.6,21.9c-0.3,0.5-0.5,0.9-0.8,1.4C307.6,85.3,309.2,85.5,310.7,85.8z"/>
				<path id="XMLID_332_" class="st2" d="M171,85.1c2.9,0,7.8,0.3,12.5,0.6c1.1,0.1,2.1,0.1,3,0.2c3.4-4.2,6.7-8.5,9.8-12.9
					c3.8-4.6,6.9-10.1,12.2-13.1c6.8-3.8,14.7-5.2,22.5-5.9c3-0.8,6.2-0.6,9.3-0.8c11.7-0.5,23.4,0,35.1,0.3
					c7.6,1.3,15.4,0.7,23.1,0.7c7-0.9,14.6-2,20-7c3.9-3.8,5.1-9.9,3.6-15c-3-7.1-11.2-9.4-18.1-10.4c-5.2-0.2-10.5-0.5-15.6,0.6
					c-22,4-43.5,10.2-64.7,17.2c-7.6,2.9-15.9,5-21.8,10.9c-6.6,6.5-11.9,14.2-18.2,20.9c-4.9,5.5-10.5,10.5-17,14.1
					C167.9,85.3,169.4,85.1,171,85.1z"/>
				<path id="XMLID_331_" class="st3" d="M86.1,64.2c8.2,3,18.1,14.1,18.1,14.1s2.6,2.6,8.4,9.1c5.8,6.5,4.5,4.9,6.2,8
					c6.7-5.4,16.7-9.7,27.6-10.3c-0.1-0.1-0.2-0.1-0.2-0.2c-8.6-6.5-14.8-15.6-23.3-22.3c-6.4-4.8-13.8-9-21.6-10.7
					c-6.3-0.8-13.2,0.3-19.5,1.4c-4.3,1.2-8.9,3.3-11.1,7.4c-1.5,2.9,3.1-2.4,4.9,0.6C76.6,64.2,83.4,63.3,86.1,64.2z"/>
			</g>
		</g>
	</g>
</g>
<g id="Слой_4" class="st4">
</g>
<g id="Слой_1">
	<g id="XMLID_215_">
		<g id="XMLID_216_">
			<g id="XMLID_218_">
				<g id="XMLID_234_">
					<path id="XMLID_236_" d="M95.1,100.1c-21.2,0-33.9,2.5-33.9,7.2c0,4.3,11.1,2.8,11.1,7.5c0,1.9-3,12.5-6.5,21.4
						c-0.5,0.1-1,0.1-1.5,0.1c-16.2,0-23-12.4-23-29.3c0-10.6,1.8-21.3,7.2-30c1-1.9,3.5-4.8,3.5-6.7c0-1.4-1.4-2.8-5.2-2.8
						c-9.4,0-23.8,4-32.7,11.6C5.3,86.2,1,99.5,1,111.5c0,19.5,11.5,33.4,42.6,33.4c7.4,0,14.1-0.8,19.5-2.2
						c-0.7,1.5-1.5,2.8-2.2,3.8c-4.3,6.2-12.6,7.9-12.6,12.1c0,2.5,6.1,3.9,15.4,3.9c17.8,0,26.7-4.1,31.4-11.2
						c4.4-6.7,9.3-30.4,14.8-41.6c1-1.9,1.6-3.4,1.6-4.9C111.6,101.5,106.4,100.1,95.1,100.1z"/>
					<path id="XMLID_235_" class="st4" d="M6.7,69.6c10.8-4.4,27.7-9,44.5-9c18.4,0,40.5,2.7,51.6,15.9c0.4,0,1,0.1,1.5,0.7
						c4.6,0,7.2-13.3,7.6-18.3c0-1.2-0.2-2.4-0.9-2.8c-13.3-7.3-31.2-8.5-45.8-8.5C29.7,47.6,0,62.1,0,68.4c0,1.5,1,2.3,2,2.3
						C2.8,70.7,4.6,70.4,6.7,69.6z"/>
				</g>
				<path id="XMLID_231_" d="M167.6,145.1c-5.6,0-12.4-1.3-14.4-7.6c-2.8,2.8-9.2,7.6-20.5,7.6c-11.2,0-21.6-5.1-21.6-18.8
					c0-16.4,12.9-34.9,37.9-34.9c8.3,0,13.8,2.4,17.2,5.5c0-0.3,0-0.6,0-0.9c0-0.6,0-1.3,0-2.1c0-1.5,1.5-2.4,4.7-2.4
					c2.6,0,7.4,0.3,12.2,0.6c3.8,0.2,7.5,0.4,10.2,0.4c1.9,0,2.5,1.4,2.5,2.4c0,4.1-2.7,11-5.5,18.1c-3.1,7.8-6.3,15.5-6.3,19.5
					c0,2.5,1.1,3.2,3.1,3.2c4,0,13.9-4.1,17.1-5.8c0.7-0.4,1.4-0.5,2.1-0.5c1.1,0,1.9,0.4,1.9,1.7c0,1.1-0.8,1.9-1.7,2.6
					C203.2,136.6,188.1,145.1,167.6,145.1z M145.6,132.7c4,0,10.1-2.1,15.3-14.1c1.6-3.6,2.8-8.1,2.8-11.6s-1.4-5.9-5.9-5.9
					c-9.7,0-19.4,12.8-19.4,23.6C138.5,129.5,141.4,132.7,145.6,132.7z"/>
				<path id="XMLID_229_" d="M241.4,102.9c4.6-5.5,13.1-11.5,20.3-11.5c4.5,0,8.5,1.2,8.5,3.9c0,5.7-4.5,14.7-7.2,16.9
					c-0.7,0.5-1.5,0.8-2.6,0.8c-1,0-1.9-0.2-2.8-1c-2.7-2-6.7-4.4-12.9-4.4c-1.4,0-2.9,0-4.7,0.4c-3.3,11.2-8,25-10.8,33.8
					c-0.5,1.6-2.2,1.8-2.6,1.8c-12.4,0-19.7,1.5-25.1,1.5c-0.7,0-1.9-1.1-1.9-1.9c0-4,13.3-31.4,13.3-46c0-0.6,0-1.2,0-1.9
					c0-1.5,1.5-2.4,4.7-2.4c5.3,0,17.5-0.5,23.1-0.5c1.9,0,2.5,1.4,2.5,2.4C243.3,95.6,241.8,100.8,241.4,102.9z"/>
				<path id="XMLID_226_" d="M321.9,145.1c-5.6,0-12.4-1.3-14.4-7.6c-2.8,2.8-9.2,7.6-20.5,7.6c-11.2,0-21.6-5.1-21.6-18.8
					c0-16.4,12.9-34.9,37.9-34.9c8.3,0,13.8,2.4,17.2,5.5c0-0.3,0-0.6,0-0.9c0-0.6,0-1.3,0-2.1c0-1.5,1.5-2.4,4.7-2.4
					c2.6,0,7.4,0.3,12.2,0.6c3.8,0.2,7.5,0.4,10.2,0.4c1.9,0,2.5,1.4,2.5,2.4c0,4.1-2.7,11-5.5,18.1c-3.1,7.8-6.3,15.5-6.3,19.5
					c0,2.5,1.1,3.2,3.1,3.2c4,0,13.9-4.1,17.1-5.8c0.7-0.4,1.4-0.5,2.1-0.5c1.1,0,1.9,0.4,1.9,1.7c0,1.1-0.8,1.9-1.7,2.6
					C357.5,136.6,342.4,145.1,321.9,145.1z M299.9,132.7c4,0,10.1-2.1,15.3-14.1c1.6-3.6,2.8-8.1,2.8-11.6s-1.4-5.9-5.9-5.9
					c-9.7,0-19.4,12.8-19.4,23.6C292.8,129.5,295.7,132.7,299.9,132.7z"/>
				<path id="XMLID_222_" d="M399.6,141c1-2.9,2.1-6,3.2-9.1c-7,5.2-16.1,8.3-24.5,8.3c-10.8,0-21.2-4.2-21.2-17.7
					c0-19.5,17.1-33.5,38.9-33.5c8.9,0,14.3,2.1,17.8,4.9c6-1.9,15.2-3.5,19.3-3.5c4.6,0,8.2,2.2,8.2,5.9c0,3.5-5.2,14.9-13.1,39.5
					c8.7-2.3,13.5-4.4,21-8c1.1-0.5,2.1-0.9,3.1-0.9c1,0,2,0.6,2,1.7c0,0.9-0.5,1.7-1.8,2.6c-5.1,3.8-13.7,7.6-26.3,11.1l-1.3,4.3
					c-4.8,15.9-28.3,19.5-47.5,19.5c-13.1,0-22.9-2.3-22.9-8.8C354.5,148.8,384.1,143.1,399.6,141z M397.6,146.5
					c-9.5,1.5-21.8,4.4-21.8,9.9c0,2.6,2.8,4.2,6.4,4.2c5.5,0,11-1.8,13.1-7.6L397.6,146.5z M391.6,128.8c4,0,10.7-0.6,16-12.6
					c1.6-3.6,2.8-8.1,2.8-11.6s-1.4-5.9-5.9-5.9c-9.7,0-20,11.9-20,22.6C384.5,126,387.4,128.8,391.6,128.8z"/>
				<path id="XMLID_219_" d="M480.6,145.1c-23.3,0-33-7.4-33-20.3c0-20.3,20.8-33.4,46.4-33.4c16.8,0,23.7,5.9,23.7,14.5
					c0,14.1-18,19.2-41.4,20.9c0.9,7.9,9.3,9.9,16.3,9.9c10,0,22.1-3.4,33-6.9c0.7-0.2,1.3-0.4,2-0.4c0.8,0,1.7,0.3,1.7,1.7
					c0,0.9-0.3,1.7-2.4,2.9C522.9,136.2,505.5,145.1,480.6,145.1z M494.7,102.5c0-2.4-1.8-4-4.2-4c-7.9,0-13.2,12.1-14.1,22.8
					C487.3,118.3,494.7,111.9,494.7,102.5z"/>
			</g>
			<path id="XMLID_217_" d="M146,85c-8.6-6.5-14.8-15.6-23.3-22.3c-6.4-4.8-13.8-9-21.6-10.7c0,0,0,0-0.1,0
				c-11.5-3.6-24.7-4.4-35.8-4.4C29.7,47.6,0,62.1,0,68.4c0,1.5,1,2.3,2,2.3c0.7,0,2.6-0.4,4.6-1.2c10.8-4.4,27.7-9,44.5-9
				c15,0,32.3,1.8,44.3,9.5c4.9,4,8.7,8.3,8.7,8.3s2.6,2.6,8.4,9.1c5.8,6.5,4.5,4.9,6.2,8c6.7-5.4,16.7-9.7,27.6-10.3
				C146.2,85.1,146.1,85.1,146,85z"/>
		</g>
	</g>
	<g id="XMLID_193_">
		<g id="XMLID_194_">
			<g id="XMLID_196_">
				<g id="XMLID_212_">
					<path id="XMLID_214_" class="st2" d="M95.1,100.1c-21.2,0-33.9,2.5-33.9,7.2c0,4.3,11.1,2.8,11.1,7.5c0,1.9-3,12.5-6.5,21.4
						c-0.5,0.1-1,0.1-1.5,0.1c-16.2,0-23-12.4-23-29.3c0-10.6,1.8-21.3,7.2-30c1-1.9,3.5-4.8,3.5-6.7c0-1.4-1.4-2.8-5.2-2.8
						c-9.4,0-23.8,4-32.7,11.6C5.3,86.2,1,99.5,1,111.5c0,19.5,11.5,33.4,42.6,33.4c7.4,0,14.1-0.8,19.5-2.2
						c-0.7,1.5-1.5,2.8-2.2,3.8c-4.3,6.2-12.6,7.9-12.6,12.1c0,2.5,6.1,3.9,15.4,3.9c17.8,0,26.7-4.1,31.4-11.2
						c4.4-6.7,9.3-30.4,14.8-41.6c1-1.9,1.6-3.4,1.6-4.9C111.6,101.5,106.4,100.1,95.1,100.1z"/>
					<path id="XMLID_213_" class="st3" d="M6.7,69.6c10.8-4.4,27.7-9,44.5-9c18.4,0,40.5,2.7,51.6,15.9c0.4,0,1,0.1,1.5,0.7
						c4.6,0,7.2-13.3,7.6-18.3c0-1.2-0.2-2.4-0.9-2.8c-13.3-7.3-31.2-8.5-45.8-8.5C29.7,47.6,0,62.1,0,68.4c0,1.5,1,2.3,2,2.3
						C2.8,70.7,4.6,70.4,6.7,69.6z"/>
				</g>
				<path id="XMLID_209_" class="st2" d="M167.6,145.1c-5.6,0-12.4-1.3-14.4-7.6c-2.8,2.8-9.2,7.6-20.5,7.6
					c-11.2,0-21.6-5.1-21.6-18.8c0-16.4,12.9-34.9,37.9-34.9c8.3,0,13.8,2.4,17.2,5.5c0-0.3,0-0.6,0-0.9c0-0.6,0-1.3,0-2.1
					c0-1.5,1.5-2.4,4.7-2.4c2.6,0,7.4,0.3,12.2,0.6c3.8,0.2,7.5,0.4,10.2,0.4c1.9,0,2.5,1.4,2.5,2.4c0,4.1-2.7,11-5.5,18.1
					c-3.1,7.8-6.3,15.5-6.3,19.5c0,2.5,1.1,3.2,3.1,3.2c4,0,13.9-4.1,17.1-5.8c0.7-0.4,1.4-0.5,2.1-0.5c1.1,0,1.9,0.4,1.9,1.7
					c0,1.1-0.8,1.9-1.7,2.6C203.2,136.6,188.1,145.1,167.6,145.1z M145.6,132.7c4,0,10.1-2.1,15.3-14.1c1.6-3.6,2.8-8.1,2.8-11.6
					s-1.4-5.9-5.9-5.9c-9.7,0-19.4,12.8-19.4,23.6C138.5,129.5,141.4,132.7,145.6,132.7z"/>
				<path id="XMLID_207_" class="st2" d="M241.4,102.9c4.6-5.5,13.1-11.5,20.3-11.5c4.5,0,8.5,1.2,8.5,3.9c0,5.7-4.5,14.7-7.2,16.9
					c-0.7,0.5-1.5,0.8-2.6,0.8c-1,0-1.9-0.2-2.8-1c-2.7-2-6.7-4.4-12.9-4.4c-1.4,0-2.9,0-4.7,0.4c-3.3,11.2-8,25-10.8,33.8
					c-0.5,1.6-2.2,1.8-2.6,1.8c-12.4,0-19.7,1.5-25.1,1.5c-0.7,0-1.9-1.1-1.9-1.9c0-4,13.3-31.4,13.3-46c0-0.6,0-1.2,0-1.9
					c0-1.5,1.5-2.4,4.7-2.4c5.3,0,17.5-0.5,23.1-0.5c1.9,0,2.5,1.4,2.5,2.4C243.3,95.6,241.8,100.8,241.4,102.9z"/>
				<path id="XMLID_204_" class="st2" d="M321.9,145.1c-5.6,0-12.4-1.3-14.4-7.6c-2.8,2.8-9.2,7.6-20.5,7.6
					c-11.2,0-21.6-5.1-21.6-18.8c0-16.4,12.9-34.9,37.9-34.9c8.3,0,13.8,2.4,17.2,5.5c0-0.3,0-0.6,0-0.9c0-0.6,0-1.3,0-2.1
					c0-1.5,1.5-2.4,4.7-2.4c2.6,0,7.4,0.3,12.2,0.6c3.8,0.2,7.5,0.4,10.2,0.4c1.9,0,2.5,1.4,2.5,2.4c0,4.1-2.7,11-5.5,18.1
					c-3.1,7.8-6.3,15.5-6.3,19.5c0,2.5,1.1,3.2,3.1,3.2c4,0,13.9-4.1,17.1-5.8c0.7-0.4,1.4-0.5,2.1-0.5c1.1,0,1.9,0.4,1.9,1.7
					c0,1.1-0.8,1.9-1.7,2.6C357.5,136.6,342.4,145.1,321.9,145.1z M299.9,132.7c4,0,10.1-2.1,15.3-14.1c1.6-3.6,2.8-8.1,2.8-11.6
					s-1.4-5.9-5.9-5.9c-9.7,0-19.4,12.8-19.4,23.6C292.8,129.5,295.7,132.7,299.9,132.7z"/>
				<path id="XMLID_200_" class="st2" d="M399.6,141c1-2.9,2.1-6,3.2-9.1c-7,5.2-16.1,8.3-24.5,8.3c-10.8,0-21.2-4.2-21.2-17.7
					c0-19.5,17.1-33.5,38.9-33.5c8.9,0,14.3,2.1,17.8,4.9c6-1.9,15.2-3.5,19.3-3.5c4.6,0,8.2,2.2,8.2,5.9c0,3.5-5.2,14.9-13.1,39.5
					c8.7-2.3,13.5-4.4,21-8c1.1-0.5,2.1-0.9,3.1-0.9c1,0,2,0.6,2,1.7c0,0.9-0.5,1.7-1.8,2.6c-5.1,3.8-13.7,7.6-26.3,11.1l-1.3,4.3
					c-4.8,15.9-28.3,19.5-47.5,19.5c-13.1,0-22.9-2.3-22.9-8.8C354.5,148.8,384.1,143.1,399.6,141z M397.6,146.5
					c-9.5,1.5-21.8,4.4-21.8,9.9c0,2.6,2.8,4.2,6.4,4.2c5.5,0,11-1.8,13.1-7.6L397.6,146.5z M391.6,128.8c4,0,10.7-0.6,16-12.6
					c1.6-3.6,2.8-8.1,2.8-11.6s-1.4-5.9-5.9-5.9c-9.7,0-20,11.9-20,22.6C384.5,126,387.4,128.8,391.6,128.8z"/>
				<path id="XMLID_197_" class="st2" d="M480.6,145.1c-23.3,0-33-7.4-33-20.3c0-20.3,20.8-33.4,46.4-33.4
					c16.8,0,23.7,5.9,23.7,14.5c0,14.1-18,19.2-41.4,20.9c0.9,7.9,9.3,9.9,16.3,9.9c10,0,22.1-3.4,33-6.9c0.7-0.2,1.3-0.4,2-0.4
					c0.8,0,1.7,0.3,1.7,1.7c0,0.9-0.3,1.7-2.4,2.9C522.9,136.2,505.5,145.1,480.6,145.1z M494.7,102.5c0-2.4-1.8-4-4.2-4
					c-7.9,0-13.2,12.1-14.1,22.8C487.3,118.3,494.7,111.9,494.7,102.5z"/>
			</g>
			<path id="XMLID_195_" class="st2" d="M146,85c-8.6-6.5-14.8-15.6-23.3-22.3c-6.4-4.8-13.8-9-21.6-10.7c0,0,0,0-0.1,0
				c-11.5-3.6-24.7-4.4-35.8-4.4C29.7,47.6,0,62.1,0,68.4c0,1.5,1,2.3,2,2.3c0.7,0,2.6-0.4,4.6-1.2c10.8-4.4,27.7-9,44.5-9
				c15,0,32.3,1.8,44.3,9.5c4.9,4,8.7,8.3,8.7,8.3s2.6,2.6,8.4,9.1c5.8,6.5,4.5,4.9,6.2,8c6.7-5.4,16.7-9.7,27.6-10.3
				C146.2,85.1,146.1,85.1,146,85z"/>
		</g>
	</g>
</g>
<g id="Слой_2" class="st4">
	<text id="XMLID_38_" transform="matrix(1 0 0 1 4.6185 36.3479)" class="st5 st6 st7">Тайм-бар</text>
</g>
</svg>
